<?xml version="1.0" encoding="UTF-8" standalone="no"?>
<!-- Created with Inkscape (http://www.inkscape.org/) -->

<svg
   width="210mm"
   height="297mm"
   viewBox="0 0 210 297"
   version="1.1"
   id="svg5"
   inkscape:version="1.2.1 (9c6d41e, 2022-07-14)"
   sodipodi:docname="EN9x9_mini_objects.svg"
   xmlns:inkscape="http://www.inkscape.org/namespaces/inkscape"
   xmlns:sodipodi="http://sodipodi.sourceforge.net/DTD/sodipodi-0.dtd"
   xmlns="http://www.w3.org/2000/svg"
   xmlns:svg="http://www.w3.org/2000/svg">
  <sodipodi:namedview
     id="namedview7"
     pagecolor="#ffffff"
     bordercolor="#000000"
     borderopacity="0.25"
     inkscape:showpageshadow="2"
     inkscape:pageopacity="0.0"
     inkscape:pagecheckerboard="0"
     inkscape:deskcolor="#d1d1d1"
     inkscape:document-units="mm"
     showgrid="false"
     inkscape:zoom="9.0202915"
     inkscape:cx="36.528753"
     inkscape:cy="25.664359"
     inkscape:window-width="1470"
     inkscape:window-height="891"
     inkscape:window-x="0"
     inkscape:window-y="37"
     inkscape:window-maximized="1"
     inkscape:current-layer="layer2-0" />
  <defs
     id="defs2" />
  <g
     inkscape:groupmode="layer"
     id="layer2-0"
     inkscape:label="dijkstra"
     transform="translate(0.12381521,13.403044)"
     style="display:inline">
    <g
       aria-label="A"
       id="text13524"
       style="font-size:1.33333px;font-family:'Allerta Stencil';-inkscape-font-specification:'Allerta Stencil';text-align:center;text-anchor:middle;stroke:#000000;stroke-width:0">
      <path
         d="M 1.1216265,-12.090545 H 0.96016856 l -0.24869731,-0.718748 -0.25130146,0.718748 H 0.29740978 l 0.33593667,-0.958331 h 0.15494753 z m -0.32421796,-0.304686 0.0377603,0.105468 H 0.58647156 l 0.0364583,-0.105468 z"
         id="path3293" />
    </g>
    <g
       aria-label="K"
       id="text13528"
       style="font-size:1.33333px;font-family:'Allerta Stencil';-inkscape-font-specification:'Allerta Stencil';text-align:center;text-anchor:middle;stroke:#000000;stroke-width:0">
      <path
         d="m 2.0513158,-12.073786 v -0.959633 h 0.1588537 v 0.959633 z m 0.3164054,-0.466144 0.3333325,0.466144 H 2.5200646 l -0.2565098,-0.377603 v -0.190104 l 0.2330724,-0.391926 h 0.1783849 z"
         id="path3296" />
    </g>
    <g
       aria-label="Q"
       id="text13532"
       style="font-size:1.33333px;font-family:'Allerta Stencil';-inkscape-font-specification:'Allerta Stencil';text-align:center;text-anchor:middle;stroke:#000000;stroke-width:0">
      <path
         d="m 3.6424615,-12.559463 q 0,-0.115885 0.027344,-0.204427 0.028646,-0.08984 0.078125,-0.151041 0.050781,-0.0625 0.1197914,-0.09505 0.06901,-0.03385 0.1484371,-0.03906 v 0.130208 q -0.044271,0.0052 -0.083333,0.02734 -0.03776,0.02214 -0.066406,0.0651 -0.028646,0.04297 -0.046875,0.109375 -0.016927,0.06641 -0.018229,0.157552 0.0013,0.09245 0.018229,0.158854 0.018229,0.0651 0.046875,0.109374 0.029948,0.04427 0.067708,0.06771 0.039062,0.02214 0.082031,0.02604 v 0.126302 h -0.023437 q -0.075521,-0.0091 -0.1406247,-0.04427 -0.063802,-0.03516 -0.1106768,-0.09635 -0.046875,-0.0612 -0.072916,-0.148437 -0.026042,-0.08724 -0.026042,-0.199218 z m 0.8007793,0 q 0,0.09896 -0.023437,0.179687 -0.023437,0.08073 -0.063802,0.141927 -0.040364,0.0612 -0.09375,0.10026 -0.053385,0.03906 -0.1132809,0.05078 l 0.179687,0.23177 H 4.1567832 l -0.087239,-0.149739 v -0.192708 q 0.044271,-0.0052 0.082031,-0.02734 0.039062,-0.02344 0.067708,-0.06641 0.028646,-0.04427 0.045573,-0.109374 0.018229,-0.06641 0.019531,-0.158854 -0.0013,-0.09245 -0.019531,-0.157552 -0.016927,-0.06641 -0.046875,-0.109375 -0.028646,-0.04427 -0.067708,-0.06641 -0.03776,-0.02344 -0.080729,-0.02734 v -0.128906 q 0.079427,0.0039 0.147135,0.03776 0.06901,0.03385 0.1184893,0.09635 0.050781,0.0612 0.079427,0.151041 0.028646,0.08854 0.028646,0.204427 z"
         id="path3299" />
    </g>
    <g
       aria-label="U"
       id="text13536"
       style="font-size:1.33333px;font-family:'Allerta Stencil';-inkscape-font-specification:'Allerta Stencil';text-align:center;text-anchor:middle;stroke:#000000;stroke-width:0">
      <path
         d="m 5.4953272,-12.58941 q 0,0.100261 0.013021,0.170573 0.013021,0.06901 0.03776,0.114583 0.02474,0.04427 0.058594,0.06641 0.035156,0.02214 0.078125,0.02604 v 0.128906 q -0.079427,-0.0052 -0.1445308,-0.03776 -0.063802,-0.03385 -0.1080727,-0.09505 -0.044271,-0.0625 -0.06901,-0.152343 -0.02474,-0.08984 -0.02474,-0.205729 v -0.475259 h 0.1588538 z m 0.5872381,-0.459634 v 0.475259 q 0,0.115886 -0.024739,0.205729 -0.024739,0.08984 -0.070312,0.152343 -0.044271,0.0612 -0.1080727,0.09505 -0.063802,0.03255 -0.1432288,0.03776 v -0.128906 q 0.042969,-0.0052 0.076823,-0.02604 0.035156,-0.02214 0.059896,-0.06641 0.02474,-0.04427 0.03776,-0.113281 0.014323,-0.07031 0.014323,-0.171875 v -0.459634 z"
         id="path3302" />
    </g>
    <g
       aria-label="A"
       id="text13540"
       style="font-size:1.33333px;font-family:'Allerta Stencil';-inkscape-font-specification:'Allerta Stencil';text-align:center;text-anchor:middle;stroke:#000000;stroke-width:0">
      <path
         d="M 7.7882942,-12.090545 H 7.6268363 L 7.378139,-12.809293 7.1268376,-12.090545 H 6.9640775 l 0.3359367,-0.958331 h 0.1549475 z m -0.3242179,-0.304686 0.03776,0.105468 H 7.2531393 l 0.036458,-0.105468 z"
         id="path3305" />
    </g>
    <g
       aria-label="R"
       id="text13544"
       style="font-size:1.33333px;font-family:'Allerta Stencil';-inkscape-font-specification:'Allerta Stencil';text-align:center;text-anchor:middle;stroke:#000000;stroke-width:0">
      <path
         d="m 8.7173327,-13.049527 h 0.1562496 v 0.959633 H 8.7173327 Z m 0.65104,0.959633 H 9.2030085 L 9.0220194,-12.43755 q -0.00391,0 -0.00911,0.0013 -0.00391,0 -0.013021,0 -0.00911,0 -0.027344,0 -0.016927,0 -0.045573,0 v -0.114583 h 0.088541 q 0.028646,0 0.057291,-0.0091 0.028646,-0.01042 0.052083,-0.03255 0.023437,-0.02214 0.03776,-0.0612 0.014323,-0.04036 0.014323,-0.09896 0,-0.02344 -0.00651,-0.05338 -0.00651,-0.03125 -0.027344,-0.05859 -0.019531,-0.02865 -0.05599,-0.04687 -0.036458,-0.01953 -0.096354,-0.01953 h -0.063802 v -0.118489 h 0.066406 q 0.061198,0 0.1210935,0.01953 0.059896,0.01953 0.1067706,0.05859 0.048177,0.03906 0.076823,0.09505 0.029948,0.05469 0.029948,0.123698 0,0.104166 -0.048177,0.177083 -0.048177,0.07292 -0.130208,0.108072 z"
         id="path3308" />
    </g>
    <g
       aria-label="T"
       id="text13548"
       style="font-size:1.33333px;font-family:'Allerta Stencil';-inkscape-font-specification:'Allerta Stencil';text-align:center;text-anchor:middle;stroke:#000000;stroke-width:0">
      <path
         d="m 11.07475,-13.049527 v 0.10677 h -0.286458 v 0.852863 h -0.157551 v -0.852863 h -0.286458 v -0.10677 z"
         id="path3311" />
    </g>
    <g
       aria-label="E"
       id="text13552"
       style="font-size:1.33333px;font-family:'Allerta Stencil';-inkscape-font-specification:'Allerta Stencil';text-align:center;text-anchor:middle;stroke:#000000;stroke-width:0">
      <path
         d="m 12.076054,-13.049527 h 0.158854 v 0.959633 h -0.158854 z m 0.559895,0.527342 h -0.347656 v -0.10677 h 0.347656 z m -0.347656,0.313801 h 0.38802 v 0.11849 h -0.38802 z m 0.38802,-0.841143 v 0.118489 h -0.38802 v -0.118489 z"
         id="path3314" />
    </g>
    <g
       aria-label="R"
       id="text13556"
       style="font-size:1.33333px;font-family:'Allerta Stencil';-inkscape-font-specification:'Allerta Stencil';text-align:center;text-anchor:middle;stroke:#000000;stroke-width:0">
      <path
         d="m 13.717331,-13.049527 h 0.156249 v 0.959633 h -0.156249 z m 0.65104,0.959633 h -0.165364 l -0.18099,-0.347656 q -0.0039,0 -0.0091,0.0013 -0.0039,0 -0.01302,0 -0.0091,0 -0.02734,0 -0.01693,0 -0.04557,0 v -0.114583 h 0.08854 q 0.02865,0 0.05729,-0.0091 0.02865,-0.01042 0.05208,-0.03255 0.02344,-0.02214 0.03776,-0.0612 0.01432,-0.04036 0.01432,-0.09896 0,-0.02344 -0.0065,-0.05338 -0.0065,-0.03125 -0.02734,-0.05859 -0.01953,-0.02865 -0.05599,-0.04687 -0.03646,-0.01953 -0.09635,-0.01953 h -0.0638 v -0.118489 h 0.06641 q 0.0612,0 0.121093,0.01953 0.0599,0.01953 0.106771,0.05859 0.04818,0.03906 0.07682,0.09505 0.02995,0.05469 0.02995,0.123698 0,0.104166 -0.04818,0.177083 -0.04818,0.07292 -0.130208,0.108072 z"
         id="path3317" />
    </g>
    <g
       aria-label="T"
       id="text13524-5"
       style="font-size:1.33333px;font-family:'Allerta Stencil';-inkscape-font-specification:'Allerta Stencil';text-align:center;text-anchor:middle;display:inline;stroke:#000000;stroke-width:0">
      <path
         d="m 1.0747516,-11.38286 v 0.10677 H 0.78829398 v 0.852863 H 0.63074229 V -11.27609 H 0.34428466 v -0.10677 z"
         id="path3320" />
    </g>
    <g
       aria-label="W"
       id="text13528-8"
       style="font-size:1.33333px;font-family:'Allerta Stencil';-inkscape-font-specification:'Allerta Stencil';text-align:center;text-anchor:middle;display:inline;stroke:#000000;stroke-width:0">
      <path
         d="m 2.1047011,-10.554921 0.1822912,-0.828123 h 0.061198 v 0.347655 l -0.1419268,0.617186 H 2.0018367 l -0.2434889,-0.964841 h 0.1770829 z m 0.7122378,-0.828123 h 0.1770829 l -0.259114,0.964841 H 2.5317834 L 2.4015753,-11.01065 v -0.372394 h 0.0625 l 0.1692704,0.828123 z"
         id="path3323" />
    </g>
    <g
       aria-label="E"
       id="text13532-6"
       style="font-size:1.33333px;font-family:'Allerta Stencil';-inkscape-font-specification:'Allerta Stencil';text-align:center;text-anchor:middle;display:inline;stroke:#000000;stroke-width:0">
      <path
         d="m 3.7427218,-11.38286 h 0.1588538 v 0.959633 H 3.7427218 Z m 0.5598944,0.527342 H 3.9549608 v -0.10677 h 0.3476554 z m -0.3476554,0.313801 h 0.3880199 v 0.11849 H 3.9549608 Z m 0.3880199,-0.841143 v 0.118489 H 3.9549608 v -0.118489 z"
         id="path3326" />
    </g>
    <g
       aria-label="N"
       id="text13536-9"
       style="font-size:1.33333px;font-family:'Allerta Stencil';-inkscape-font-specification:'Allerta Stencil';text-align:center;text-anchor:middle;display:inline;stroke:#000000;stroke-width:0">
      <path
         d="m 5.8976696,-11.38286 h 0.1588538 v 0.959633 H 5.8976696 l -0.3229158,-0.567707 v -0.299479 l 0.3229158,0.569009 z m -0.5351549,0.959633 v -0.959633 h 0.1588538 v 0.959633 z"
         id="path3329" />
    </g>
    <g
       aria-label="T"
       id="text13540-1"
       style="font-size:1.33333px;font-family:'Allerta Stencil';-inkscape-font-specification:'Allerta Stencil';text-align:center;text-anchor:middle;display:inline;stroke:#000000;stroke-width:0">
      <path
         d="m 7.7414194,-11.38286 v 0.10677 H 7.4549617 v 0.852863 H 7.29741 V -11.27609 H 7.0109524 v -0.10677 z"
         id="path3332" />
    </g>
    <g
       aria-label="Y"
       id="text13544-1"
       style="font-size:1.33333px;font-family:'Allerta Stencil';-inkscape-font-specification:'Allerta Stencil';text-align:center;text-anchor:middle;display:inline;stroke:#000000;stroke-width:0">
      <path
         d="m 9.2218887,-11.38286 h 0.178385 l -0.2851555,0.569009 v 0.390624 H 8.9562644 v -0.320312 z m -0.358072,0 0.1445309,0.373697 -0.070312,0.170572 -0.2526036,-0.544269 z"
         id="path3335" />
    </g>
    <g
       aria-label="T"
       id="text13548-0"
       style="font-size:1.33333px;font-family:'Allerta Stencil';-inkscape-font-specification:'Allerta Stencil';text-align:center;text-anchor:middle;display:inline;stroke:#000000;stroke-width:0">
      <path
         d="m 11.07475,-11.38286 v 0.10677 h -0.286458 v 0.852863 h -0.157551 v -0.852863 h -0.286458 v -0.10677 z"
         id="path3338" />
    </g>
    <g
       aria-label="E"
       id="text13552-4"
       style="font-size:1.33333px;font-family:'Allerta Stencil';-inkscape-font-specification:'Allerta Stencil';text-align:center;text-anchor:middle;display:inline;stroke:#000000;stroke-width:0">
      <path
         d="m 12.076054,-11.38286 h 0.158854 v 0.959633 h -0.158854 z m 0.559895,0.527342 h -0.347656 v -0.10677 h 0.347656 z m -0.347656,0.313801 h 0.38802 v 0.11849 h -0.38802 z m 0.38802,-0.841143 v 0.118489 h -0.38802 v -0.118489 z"
         id="path3341" />
    </g>
    <g
       aria-label="N"
       id="text13556-9"
       style="font-size:1.33333px;font-family:'Allerta Stencil';-inkscape-font-specification:'Allerta Stencil';text-align:center;text-anchor:middle;display:inline;stroke:#000000;stroke-width:0">
      <path
         d="m 14.231002,-11.38286 h 0.158853 v 0.959633 h -0.158853 l -0.322916,-0.567707 v -0.299479 l 0.322916,0.569009 z m -0.535155,0.959633 v -0.959633 h 0.158854 v 0.959633 z"
         id="path3344" />
    </g>
    <g
       aria-label="F"
       id="text13524-5-6"
       style="font-size:1.33333px;font-family:'Allerta Stencil';-inkscape-font-specification:'Allerta Stencil';text-align:center;text-anchor:middle;display:inline;stroke:#000000;stroke-width:0">
      <path
         d="m 0.40938863,-9.7161934 h 0.15885378 v 0.9596331 H 0.40938863 Z m 0.55989445,0.5273425 H 0.62162769 v -0.1067706 h 0.34765539 z m 0.0403645,-0.5273425 v 0.1184893 H 0.62162769 v -0.1184893 z"
         id="path3347" />
    </g>
    <g
       aria-label="I"
       id="text13528-8-4"
       style="font-size:1.33333px;font-family:'Allerta Stencil';-inkscape-font-specification:'Allerta Stencil';text-align:center;text-anchor:middle;display:inline;stroke:#000000;stroke-width:0">
      <path
         d="M 2.4556117,-8.7565603 H 2.2967579 v -0.9596331 h 0.1588538 z"
         id="path3350" />
    </g>
    <g
       aria-label="V"
       id="text13532-6-5"
       style="font-size:1.33333px;font-family:'Allerta Stencil';-inkscape-font-specification:'Allerta Stencil';text-align:center;text-anchor:middle;display:inline;stroke:#000000;stroke-width:0">
      <path
         d="m 3.6359513,-9.7187979 h 0.1783849 l 0.2018224,0.7526024 v 0.212239 h -0.082031 z m 0.6367171,0 h 0.1770829 l -0.3124992,0.9648414 h -0.067708 v -0.2539056 z"
         id="path3353" />
    </g>
    <g
       aria-label="E"
       id="text13536-9-8"
       style="font-size:1.33333px;font-family:'Allerta Stencil';-inkscape-font-specification:'Allerta Stencil';text-align:center;text-anchor:middle;display:inline;stroke:#000000;stroke-width:0">
      <path
         d="m 5.4093897,-9.7161934 h 0.1588538 v 0.9596331 H 5.4093897 Z m 0.5598945,0.5273425 H 5.6216288 v -0.1067706 h 0.3476554 z m -0.3476554,0.3138013 h 0.3880199 v 0.1184893 H 5.6216288 Z m 0.3880199,-0.8411438 v 0.1184893 H 5.6216288 v -0.1184893 z"
         id="path3356" />
    </g>
    <g
       aria-label="C"
       id="text13540-1-3"
       style="font-size:1.33333px;font-family:'Allerta Stencil';-inkscape-font-specification:'Allerta Stencil';text-align:center;text-anchor:middle;display:inline;stroke:#000000;stroke-width:0">
      <path
         d="m 7.6014456,-9.531298 q -0.029948,-0.033854 -0.063802,-0.050781 -0.033854,-0.016927 -0.072917,-0.019531 v -0.1289059 q 0.145833,0.00651 0.244791,0.1028643 z m -0.1367184,0.6523421 q 0.039062,-0.00391 0.072917,-0.020833 0.035156,-0.016927 0.063802,-0.049479 l 0.1080726,0.095052 q -0.049479,0.048177 -0.1106768,0.074218 -0.061198,0.026042 -0.1341142,0.029948 z m -0.421874,-0.3619782 q 0,-0.1158852 0.027344,-0.2044266 0.028646,-0.088541 0.078125,-0.1497392 0.049479,-0.061198 0.1158851,-0.095052 0.067708,-0.033854 0.1471351,-0.040364 v 0.130208 q -0.042969,0.00651 -0.080729,0.029948 -0.03776,0.022135 -0.066406,0.065104 -0.028646,0.042969 -0.045573,0.1093747 -0.015625,0.065104 -0.016927,0.1549476 0.0013,0.091146 0.016927,0.1562496 0.016927,0.065104 0.045573,0.1093747 0.028646,0.044271 0.066406,0.067708 0.039062,0.023437 0.080729,0.028646 v 0.1276039 q -0.079427,-0.00521 -0.1471351,-0.039062 -0.066406,-0.033854 -0.1158851,-0.095052 -0.049479,-0.061198 -0.078125,-0.1497392 -0.027344,-0.089844 -0.027344,-0.2057286 z"
         id="path3359" />
    </g>
    <g
       aria-label="H"
       id="text13544-1-6"
       style="font-size:1.33333px;font-family:'Allerta Stencil';-inkscape-font-specification:'Allerta Stencil';text-align:center;text-anchor:middle;display:inline;stroke:#000000;stroke-width:0">
      <path
         d="m 9.4080859,-9.7161934 v 0.9596331 H 9.2518363 V -9.1888509 H 8.889858 v -0.1067706 h 0.3619783 v -0.4205719 z m -0.730467,0 h 0.1588538 v 0.9596331 H 8.6776189 Z"
         id="path3362" />
    </g>
    <g
       aria-label="A"
       id="text13548-0-6"
       style="font-size:1.33333px;font-family:'Allerta Stencil';-inkscape-font-specification:'Allerta Stencil';text-align:center;text-anchor:middle;display:inline;stroke:#000000;stroke-width:0">
      <path
         d="m 11.121625,-8.7572117 h -0.161458 l -0.248697,-0.7187482 -0.251302,0.7187482 h -0.16276 l 0.335937,-0.9583309 h 0.154947 z m -0.324218,-0.3046867 0.03776,0.1054685 H 10.58647 l 0.03646,-0.1054685 z"
         id="path3365" />
    </g>
    <g
       aria-label="L"
       id="text13552-4-1"
       style="font-size:1.33333px;font-family:'Allerta Stencil';-inkscape-font-specification:'Allerta Stencil';text-align:center;text-anchor:middle;display:inline;stroke:#000000;stroke-width:0">
      <path
         d="m 12.234908,-9.7161934 v 0.8411438 h 0.441405 v 0.1184893 h -0.600259 v -0.9596331 z"
         id="path3368" />
    </g>
    <g
       aria-label="F"
       id="text13556-9-4"
       style="font-size:1.33333px;font-family:'Allerta Stencil';-inkscape-font-specification:'Allerta Stencil';text-align:center;text-anchor:middle;display:inline;stroke:#000000;stroke-width:0">
      <path
         d="m 13.742721,-9.7161934 h 0.158854 v 0.9596331 h -0.158854 z m 0.559894,0.5273425 H 13.95496 v -0.1067706 h 0.347655 z m 0.04037,-0.5273425 v 0.1184893 h -0.38802 v -0.1184893 z"
         id="path3371" />
    </g>
    <g
       aria-label="P"
       id="text13524-5-6-0"
       style="font-size:1.33333px;font-family:'Allerta Stencil';-inkscape-font-specification:'Allerta Stencil';text-align:center;text-anchor:middle;display:inline;stroke:#000000;stroke-width:0">
      <path
         d="m 0.40418031,-8.0495264 h 0.15624962 v 0.9596331 H 0.40418031 Z m 0.27604099,0 q 0.0611978,0 0.12109345,0.019531 0.0598957,0.019531 0.10677057,0.058594 0.048177,0.039062 0.0768227,0.095052 0.0299479,0.054687 0.0299479,0.1236976 0,0.072916 -0.0247395,0.1328122 -0.0247395,0.058594 -0.0690102,0.098958 -0.0442707,0.040364 -0.10677057,0.0625 -0.0624999,0.022135 -0.13802049,0.022135 h -0.0624998 v -0.114583 h 0.0898435 q 0.0286458,0 0.0559894,-0.00911 0.0286458,-0.010417 0.0520832,-0.032552 0.0234374,-0.022135 0.0377603,-0.061198 0.0143229,-0.040364 0.0143229,-0.098958 0,-0.023437 -0.00651,-0.053385 -0.00651,-0.03125 -0.0273437,-0.058594 -0.0195312,-0.028646 -0.0559894,-0.046875 -0.0364583,-0.019531 -0.0963539,-0.019531 h -0.0638019 v -0.1184893 z"
         id="path3374" />
    </g>
    <g
       aria-label="A"
       id="text13528-8-4-8"
       style="font-size:1.33333px;font-family:'Allerta Stencil';-inkscape-font-specification:'Allerta Stencil';text-align:center;text-anchor:middle;display:inline;stroke:#000000;stroke-width:0">
      <path
         d="M 2.7882933,-7.0905447 H 2.6268354 L 2.3781381,-7.8092929 2.1268366,-7.0905447 h -0.16276 l 0.3359367,-0.958331 h 0.1549475 z m -0.324218,-0.3046867 0.03776,0.1054684 H 2.2531384 l 0.036458,-0.1054684 z"
         id="path3377" />
    </g>
    <g
       aria-label="S"
       id="text13532-6-5-5"
       style="font-size:1.33333px;font-family:'Allerta Stencil';-inkscape-font-specification:'Allerta Stencil';text-align:center;text-anchor:middle;display:inline;stroke:#000000;stroke-width:0">
      <path
         d="m 4.2199343,-7.8958812 q -0.00651,-0.0026 -0.015625,-0.00911 -0.00911,-0.00651 -0.026042,-0.011719 -0.016927,-0.00651 -0.042969,-0.010417 -0.026042,-0.00391 -0.066406,-0.0013 v -0.1315101 q 0.057291,0.0013 0.1158851,0.013021 0.059896,0.010417 0.096354,0.033854 -0.00781,0.016927 -0.018229,0.03776 -0.010417,0.019531 -0.019531,0.03776 -0.00911,0.016927 -0.015625,0.028646 -0.00651,0.011719 -0.00781,0.013021 z m -0.4492177,0.1041664 q 0,-0.057292 0.019531,-0.1028644 0.019531,-0.045573 0.052083,-0.079427 0.033854,-0.035156 0.078125,-0.054687 0.045573,-0.020833 0.095052,-0.027344 v 0.1367184 q -0.041667,0.014323 -0.06901,0.050781 -0.027344,0.035156 -0.027344,0.071614 0,0.050781 0.027344,0.082031 0.027344,0.03125 0.06901,0.054687 v 0.1484371 q -0.042969,-0.020833 -0.085937,-0.044271 -0.042969,-0.024739 -0.078125,-0.057292 -0.035156,-0.032552 -0.058594,-0.075521 -0.022135,-0.042969 -0.022135,-0.1028643 z m 0.020833,0.5312487 q 0.018229,0.010417 0.045573,0.020833 0.028646,0.00911 0.058594,0.018229 0.029948,0.00781 0.059896,0.013021 0.029948,0.00521 0.055989,0.00521 h 0.00391 v 0.1236976 h -0.0026 q -0.03125,0 -0.065104,-0.00391 -0.032552,-0.0026 -0.066406,-0.010417 -0.033854,-0.00781 -0.065104,-0.020833 -0.029948,-0.014323 -0.052083,-0.033854 z m 0.2773431,-0.373697 q 0.042969,0.019531 0.087239,0.041667 0.045573,0.022135 0.082031,0.054687 0.036458,0.03125 0.059896,0.076823 0.023437,0.045573 0.023437,0.113281 0,0.046875 -0.018229,0.091146 -0.016927,0.044271 -0.049479,0.080729 -0.03125,0.035156 -0.078125,0.059896 -0.046875,0.024739 -0.1067705,0.032552 v -0.1249997 q 0.1067705,-0.026042 0.1067705,-0.1419268 0,-0.045573 -0.029948,-0.075521 -0.029948,-0.029948 -0.076823,-0.055989 z"
         id="path3380" />
    </g>
    <g
       aria-label="T"
       id="text13536-9-8-5"
       style="font-size:1.33333px;font-family:'Allerta Stencil';-inkscape-font-specification:'Allerta Stencil';text-align:center;text-anchor:middle;display:inline;stroke:#000000;stroke-width:0">
      <path
         d="m 6.0747529,-8.0495264 v 0.1067706 H 5.7882952 v 0.8528625 H 5.6307435 V -7.9427558 H 5.3442859 v -0.1067706 z"
         id="path3383" />
    </g>
    <g
       aria-label="O"
       id="text13540-1-3-2"
       style="font-size:1.33333px;font-family:'Allerta Stencil';-inkscape-font-specification:'Allerta Stencil';text-align:center;text-anchor:middle;display:inline;stroke:#000000;stroke-width:0">
      <path
         d="m 6.9764473,-7.5703609 q 0,-0.1158851 0.027344,-0.2044266 0.028646,-0.089843 0.078125,-0.1510413 0.050781,-0.0625 0.1184893,-0.095052 0.06901,-0.033854 0.1497392,-0.039062 v 0.130208 q -0.044271,0.00521 -0.083333,0.027344 -0.039062,0.022135 -0.067708,0.065104 -0.028646,0.042969 -0.045573,0.1093747 -0.016927,0.066406 -0.018229,0.1575517 0.0013,0.092448 0.018229,0.1588538 0.016927,0.065104 0.045573,0.1093747 0.029948,0.044271 0.06901,0.067708 0.039062,0.022135 0.082031,0.026042 v 0.1289059 q -0.079427,-0.00521 -0.1484371,-0.03776 -0.06901,-0.033854 -0.1197914,-0.095052 -0.049479,-0.0625 -0.078125,-0.1523433 -0.027344,-0.089844 -0.027344,-0.2057287 z M 7.4022275,-8.059943 q 0.079427,0.00391 0.147135,0.03776 0.06901,0.033854 0.1184893,0.096354 0.050781,0.061198 0.079427,0.1510413 0.028646,0.088542 0.028646,0.2044266 0,0.1158851 -0.028646,0.2057287 -0.028646,0.089843 -0.079427,0.1523433 -0.049479,0.061198 -0.1171872,0.095052 -0.067708,0.032552 -0.1484371,0.03776 v -0.1289059 q 0.044271,-0.00521 0.083333,-0.027344 0.039062,-0.023437 0.067708,-0.066406 0.028646,-0.044271 0.045573,-0.1093747 0.016927,-0.066406 0.018229,-0.1588538 -0.0013,-0.092448 -0.018229,-0.1575517 -0.016927,-0.066406 -0.046875,-0.1093747 -0.028646,-0.044271 -0.067708,-0.066406 -0.039062,-0.023437 -0.082031,-0.027344 z"
         id="path3386" />
    </g>
    <g
       aria-label="D"
       id="text13544-1-6-3"
       style="font-size:1.33333px;font-family:'Allerta Stencil';-inkscape-font-specification:'Allerta Stencil';text-align:center;text-anchor:middle;display:inline;stroke:#000000;stroke-width:0">
      <path
         d="m 8.6554839,-8.0495264 h 0.1562496 v 0.9596331 H 8.6554839 Z m 0.2890617,0 q 0.1210935,0 0.2122391,0.039062 0.092448,0.03776 0.1523434,0.1015623 0.061198,0.063802 0.091146,0.1458329 0.029948,0.080729 0.029948,0.1666663 0,0.1184893 -0.026042,0.2031245 -0.02474,0.083333 -0.063802,0.1406246 -0.039062,0.055989 -0.088541,0.088541 -0.048177,0.032552 -0.09375,0.049479 -0.045573,0.015625 -0.083333,0.020833 -0.03776,0.00391 -0.05599,0.00391 H 8.8651188 V -7.2044764 H 8.966681 q 0.1588538,0 0.2291661,-0.1015622 0.070312,-0.1015623 0.070312,-0.2942701 0,-0.059896 -0.014323,-0.1184893 -0.014323,-0.058594 -0.05599,-0.1054685 -0.040365,-0.048177 -0.1106768,-0.076823 -0.070312,-0.029948 -0.1822912,-0.029948 h -0.03776 v -0.1184893 z"
         id="path3389" />
    </g>
    <g
       aria-label="T"
       id="text13548-0-6-7"
       style="font-size:1.33333px;font-family:'Allerta Stencil';-inkscape-font-specification:'Allerta Stencil';text-align:center;text-anchor:middle;display:inline;stroke:#000000;stroke-width:0">
      <path
         d="m 11.07475,-8.0495264 v 0.1067706 h -0.286458 v 0.8528625 h -0.157551 v -0.8528625 h -0.286458 v -0.1067706 z"
         id="path3392" />
    </g>
    <g
       aria-label="W"
       id="text13552-4-1-9"
       style="font-size:1.33333px;font-family:'Allerta Stencil';-inkscape-font-specification:'Allerta Stencil';text-align:center;text-anchor:middle;display:inline;stroke:#000000;stroke-width:0">
      <path
         d="m 12.1047,-7.2240079 0.182291,-0.828123 h 0.0612 v 0.3476554 l -0.141927,0.617186 h -0.204426 l -0.243489,-0.9648414 h 0.177083 z m 0.712238,-0.828123 h 0.177083 l -0.259114,0.9648414 H 12.531782 L 12.401574,-7.679736 v -0.3723949 h 0.0625 l 0.169271,0.828123 z"
         id="path3395" />
    </g>
    <g
       aria-label="O"
       id="text13556-9-4-3"
       style="font-size:1.33333px;font-family:'Allerta Stencil';-inkscape-font-specification:'Allerta Stencil';text-align:center;text-anchor:middle;display:inline;stroke:#000000;stroke-width:0">
      <path
         d="m 13.643111,-7.5703609 q 0,-0.1158851 0.02734,-0.2044266 0.02864,-0.089843 0.07812,-0.1510413 0.05078,-0.0625 0.11849,-0.095052 0.06901,-0.033854 0.149739,-0.039062 v 0.130208 q -0.04427,0.00521 -0.08333,0.027344 -0.03906,0.022135 -0.06771,0.065104 -0.02865,0.042969 -0.04557,0.1093747 -0.01693,0.066406 -0.01823,0.1575517 0.0013,0.092448 0.01823,0.1588538 0.01693,0.065104 0.04557,0.1093747 0.02995,0.044271 0.06901,0.067708 0.03906,0.022135 0.08203,0.026042 v 0.1289059 q -0.07943,-0.00521 -0.148437,-0.03776 -0.06901,-0.033854 -0.119792,-0.095052 -0.04948,-0.0625 -0.07812,-0.1523433 -0.02734,-0.089844 -0.02734,-0.2057287 z m 0.42578,-0.4895821 q 0.07943,0.00391 0.147135,0.03776 0.06901,0.033854 0.118489,0.096354 0.05078,0.061198 0.07943,0.1510413 0.02865,0.088542 0.02865,0.2044266 0,0.1158851 -0.02865,0.2057287 -0.02865,0.089843 -0.07943,0.1523433 -0.04948,0.061198 -0.117187,0.095052 -0.06771,0.032552 -0.148437,0.03776 v -0.1289059 q 0.04427,-0.00521 0.08333,-0.027344 0.03906,-0.023437 0.06771,-0.066406 0.02865,-0.044271 0.04557,-0.1093747 0.01693,-0.066406 0.01823,-0.1588538 -0.0013,-0.092448 -0.01823,-0.1575517 -0.01693,-0.066406 -0.04687,-0.1093747 -0.02864,-0.044271 -0.06771,-0.066406 -0.03906,-0.023437 -0.08203,-0.027344 z"
         id="path3398" />
    </g>
    <g
       aria-label="F"
       id="text13524-5-6-3"
       style="font-size:1.33333px;font-family:'Allerta Stencil';-inkscape-font-specification:'Allerta Stencil';text-align:center;text-anchor:middle;display:inline;stroke:#000000;stroke-width:0">
      <path
         d="m 0.40938863,-6.3828604 h 0.15885378 v 0.9596331 H 0.40938863 Z m 0.55989445,0.5273425 H 0.62162769 v -0.1067706 h 0.34765539 z m 0.0403645,-0.5273425 v 0.1184893 H 0.62162769 v -0.1184893 z"
         id="path3401" />
    </g>
    <g
       aria-label="O"
       id="text13528-8-4-5"
       style="font-size:1.33333px;font-family:'Allerta Stencil';-inkscape-font-specification:'Allerta Stencil';text-align:center;text-anchor:middle;display:inline;stroke:#000000;stroke-width:0">
      <path
         d="m 1.9764463,-5.9036949 q 0,-0.1158851 0.027344,-0.2044265 0.028646,-0.089844 0.078125,-0.1510413 0.050781,-0.0625 0.1184893,-0.095052 0.06901,-0.033854 0.1497392,-0.039062 v 0.130208 q -0.044271,0.00521 -0.083333,0.027344 -0.039062,0.022135 -0.067708,0.065104 -0.028646,0.042969 -0.045573,0.1093747 -0.016927,0.066406 -0.018229,0.1575517 0.0013,0.092448 0.018229,0.1588538 0.016927,0.065104 0.045573,0.1093747 0.029948,0.044271 0.06901,0.067708 0.039062,0.022135 0.082031,0.026042 v 0.1289059 q -0.079427,-0.00521 -0.1484371,-0.03776 -0.06901,-0.033854 -0.1197914,-0.095052 -0.049479,-0.0625 -0.078125,-0.1523434 -0.027344,-0.089844 -0.027344,-0.2057287 z M 2.4022265,-6.393277 q 0.079427,0.00391 0.1471351,0.03776 0.06901,0.033854 0.1184893,0.096354 0.050781,0.061198 0.079427,0.1510413 0.028646,0.088541 0.028646,0.2044265 0,0.1158852 -0.028646,0.2057287 -0.028646,0.089843 -0.079427,0.1523434 -0.049479,0.061198 -0.1171872,0.095052 -0.067708,0.032552 -0.1484372,0.03776 v -0.1289059 q 0.044271,-0.00521 0.083333,-0.027344 0.039062,-0.023437 0.067708,-0.066406 0.028646,-0.044271 0.045573,-0.1093747 0.016927,-0.066406 0.018229,-0.1588538 -0.0013,-0.092448 -0.018229,-0.1575517 -0.016927,-0.066406 -0.046875,-0.1093747 -0.028646,-0.044271 -0.067708,-0.066406 -0.039062,-0.023437 -0.082031,-0.027344 z"
         id="path3404" />
    </g>
    <g
       aria-label="U"
       id="text13532-6-5-9"
       style="font-size:1.33333px;font-family:'Allerta Stencil';-inkscape-font-specification:'Allerta Stencil';text-align:center;text-anchor:middle;display:inline;stroke:#000000;stroke-width:0">
      <path
         d="m 3.8286593,-5.9264814 q 0,0.1002601 0.013021,0.1705725 0.013021,0.06901 0.03776,0.114583 0.024739,0.044271 0.058594,0.066406 0.035156,0.022135 0.078125,0.026042 v 0.1289059 q -0.079427,-0.00521 -0.1445309,-0.03776 -0.063802,-0.033854 -0.1080726,-0.095052 -0.044271,-0.0625 -0.06901,-0.1523434 -0.02474,-0.089844 -0.02474,-0.2057287 v -0.4752592 h 0.1588538 z m 0.5872381,-0.4596343 v 0.4752592 q 0,0.1158852 -0.02474,0.2057287 -0.024739,0.089843 -0.070312,0.1523434 -0.044271,0.061198 -0.1080727,0.095052 -0.063802,0.032552 -0.1432288,0.03776 v -0.1289059 q 0.042969,-0.00521 0.076823,-0.026042 0.035156,-0.022135 0.059896,-0.066406 0.024739,-0.044271 0.03776,-0.113281 0.014323,-0.070312 0.014323,-0.1718745 v -0.4596343 z"
         id="path3407" />
    </g>
    <g
       aria-label="R"
       id="text13536-9-8-0"
       style="font-size:1.33333px;font-family:'Allerta Stencil';-inkscape-font-specification:'Allerta Stencil';text-align:center;text-anchor:middle;display:inline;stroke:#000000;stroke-width:0">
      <path
         d="m 5.3839992,-6.3828604 h 0.1562496 v 0.9596331 H 5.3839992 Z m 0.65104,0.9596331 H 5.869675 L 5.6886859,-5.7708827 q -0.00391,0 -0.00911,0.0013 -0.00391,0 -0.013021,0 -0.00911,0 -0.027344,0 -0.016927,0 -0.045573,0 v -0.1145831 h 0.088541 q 0.028646,0 0.057292,-0.00911 0.028646,-0.010417 0.052083,-0.032552 0.023437,-0.022135 0.03776,-0.061198 0.014323,-0.040365 0.014323,-0.098958 0,-0.023437 -0.00651,-0.053385 -0.00651,-0.03125 -0.027344,-0.058594 -0.019531,-0.028646 -0.055989,-0.046875 -0.036458,-0.019531 -0.096354,-0.019531 h -0.063802 v -0.1184893 h 0.066406 q 0.061198,0 0.1210934,0.019531 0.059896,0.019531 0.1067706,0.058594 0.048177,0.039062 0.076823,0.095052 0.029948,0.054687 0.029948,0.1236976 0,0.1041664 -0.048177,0.1770829 -0.048177,0.072916 -0.130208,0.1080727 z"
         id="path3410" />
    </g>
    <g
       aria-label="T"
       id="text13540-1-3-23"
       style="font-size:1.33333px;font-family:'Allerta Stencil';-inkscape-font-specification:'Allerta Stencil';text-align:center;text-anchor:middle;display:inline;stroke:#000000;stroke-width:0">
      <path
         d="m 7.7414194,-6.3828604 v 0.1067706 H 7.4549617 v 0.8528625 H 7.29741 V -6.2760898 H 7.0109524 v -0.1067706 z"
         id="path3413" />
    </g>
    <g
       aria-label="H"
       id="text13544-1-6-7"
       style="font-size:1.33333px;font-family:'Allerta Stencil';-inkscape-font-specification:'Allerta Stencil';text-align:center;text-anchor:middle;display:inline;stroke:#000000;stroke-width:0">
      <path
         d="m 9.4080859,-6.3828604 v 0.9596331 H 9.2518363 V -5.8555179 H 8.889858 v -0.1067706 h 0.3619783 v -0.4205719 z m -0.730467,0 h 0.1588538 v 0.9596331 H 8.6776189 Z"
         id="path3416" />
    </g>
    <g
       aria-label="R"
       id="text13548-0-6-0"
       style="font-size:1.33333px;font-family:'Allerta Stencil';-inkscape-font-specification:'Allerta Stencil';text-align:center;text-anchor:middle;display:inline;stroke:#000000;stroke-width:0">
      <path
         d="m 10.383998,-6.3828604 h 0.156249 v 0.9596331 h -0.156249 z m 0.65104,0.9596331 h -0.165364 l -0.18099,-0.3476554 q -0.0039,0 -0.0091,0.0013 -0.0039,0 -0.01302,0 -0.0091,0 -0.02734,0 -0.01693,0 -0.04557,0 v -0.1145831 h 0.08854 q 0.02865,0 0.05729,-0.00911 0.02864,-0.010417 0.05208,-0.032552 0.02344,-0.022135 0.03776,-0.061198 0.01432,-0.040365 0.01432,-0.098958 0,-0.023437 -0.0065,-0.053385 -0.0065,-0.03125 -0.02734,-0.058594 -0.01953,-0.028646 -0.05599,-0.046875 -0.03646,-0.019531 -0.09635,-0.019531 h -0.0638 v -0.1184893 h 0.06641 q 0.0612,0 0.121093,0.019531 0.0599,0.019531 0.106771,0.058594 0.04818,0.039062 0.07682,0.095052 0.02995,0.054687 0.02995,0.1236976 0,0.1041664 -0.04818,0.1770829 -0.04818,0.072916 -0.130208,0.1080727 z"
         id="path3419" />
    </g>
    <g
       aria-label="E"
       id="text13552-4-1-0"
       style="font-size:1.33333px;font-family:'Allerta Stencil';-inkscape-font-specification:'Allerta Stencil';text-align:center;text-anchor:middle;display:inline;stroke:#000000;stroke-width:0">
      <path
         d="m 12.076054,-6.3828604 h 0.158854 v 0.9596331 h -0.158854 z m 0.559895,0.5273425 h -0.347656 v -0.1067706 h 0.347656 z m -0.347656,0.3138013 h 0.38802 v 0.1184893 h -0.38802 z m 0.38802,-0.8411438 v 0.1184893 h -0.38802 v -0.1184893 z"
         id="path3422" />
    </g>
    <g
       aria-label="E"
       id="text13556-9-4-0"
       style="font-size:1.33333px;font-family:'Allerta Stencil';-inkscape-font-specification:'Allerta Stencil';text-align:center;text-anchor:middle;display:inline;stroke:#000000;stroke-width:0">
      <path
         d="m 13.742721,-6.3828604 h 0.158854 v 0.9596331 h -0.158854 z m 0.559895,0.5273425 H 13.95496 v -0.1067706 h 0.347656 z m -0.347656,0.3138013 h 0.38802 v 0.1184893 h -0.38802 z m 0.38802,-0.8411438 v 0.1184893 h -0.38802 v -0.1184893 z"
         id="path3425" />
    </g>
    <g
       aria-label="S"
       id="text13524-5-6-38"
       style="font-size:1.33333px;font-family:'Allerta Stencil';-inkscape-font-specification:'Allerta Stencil';text-align:center;text-anchor:middle;display:inline;stroke:#000000;stroke-width:0">
      <path
         d="m 0.88660101,-4.562548 q -0.00651,-0.0026 -0.015625,-0.00911 -0.009115,-0.00651 -0.0260416,-0.011719 -0.016927,-0.00651 -0.0429687,-0.010417 -0.0260416,-0.00391 -0.0664061,-0.0013 v -0.1315101 q 0.0572915,0.0013 0.11588513,0.013021 0.0598957,0.010417 0.0963539,0.033854 -0.007812,0.016927 -0.0182291,0.03776 -0.0104166,0.019531 -0.0195312,0.03776 -0.009115,0.016927 -0.015625,0.028646 -0.00651,0.011719 -0.007812,0.013021 z m -0.44921764,0.1041664 q 0,-0.057291 0.0195312,-0.1028643 0.0195312,-0.045573 0.0520832,-0.079427 0.0338541,-0.035156 0.0781248,-0.054687 0.0455728,-0.020833 0.0950518,-0.027344 v 0.1367184 q -0.0416666,0.014323 -0.0690102,0.050781 -0.0273437,0.035156 -0.0273437,0.071614 0,0.050781 0.0273437,0.082031 0.0273437,0.03125 0.0690102,0.054687 v 0.1484372 q -0.0429686,-0.020833 -0.0859373,-0.044271 -0.0429686,-0.024739 -0.0781248,-0.057291 -0.0351562,-0.032552 -0.0585936,-0.075521 -0.0221354,-0.042969 -0.0221354,-0.1028644 z m 0.0208333,0.5312487 q 0.0182291,0.010417 0.0455728,0.020833 0.0286458,0.00911 0.0585936,0.018229 0.0299479,0.00781 0.0598957,0.013021 0.0299478,0.00521 0.0559894,0.00521 h 0.003906 v 0.1236976 h -0.002604 q -0.0312499,0 -0.065104,-0.00391 -0.032552,-0.0026 -0.0664061,-0.010417 -0.0338541,-0.00781 -0.065104,-0.020833 -0.0299479,-0.014323 -0.0520832,-0.033854 z m 0.27734306,-0.373697 q 0.0429686,0.019531 0.0872394,0.041667 0.0455728,0.022135 0.082031,0.054687 0.0364583,0.03125 0.0598957,0.076823 0.0234374,0.045573 0.0234374,0.1132809 0,0.046875 -0.0182291,0.091146 -0.016927,0.044271 -0.049479,0.080729 -0.0312499,0.035156 -0.0781248,0.059896 -0.0468749,0.024739 -0.10677057,0.032552 v -0.1249997 q 0.10677057,-0.026042 0.10677057,-0.1419267 0,-0.045573 -0.0299478,-0.075521 -0.0299479,-0.029948 -0.0768227,-0.055989 z"
         id="path3428" />
    </g>
    <g
       aria-label="E"
       id="text13528-8-4-6"
       style="font-size:1.33333px;font-family:'Allerta Stencil';-inkscape-font-specification:'Allerta Stencil';text-align:center;text-anchor:middle;display:inline;stroke:#000000;stroke-width:0">
      <path
         d="m 2.0760553,-4.7161936 h 0.1588538 v 0.959633 H 2.0760553 Z m 0.5598944,0.5273424 H 2.2882943 v -0.1067705 h 0.3476554 z m -0.3476554,0.3138013 h 0.3880199 v 0.1184893 H 2.2882943 Z m 0.3880199,-0.8411437 v 0.1184893 H 2.2882943 v -0.1184893 z"
         id="path3431" />
    </g>
    <g
       aria-label="V"
       id="text13532-6-5-4"
       style="font-size:1.33333px;font-family:'Allerta Stencil';-inkscape-font-specification:'Allerta Stencil';text-align:center;text-anchor:middle;display:inline;stroke:#000000;stroke-width:0">
      <path
         d="m 3.6359513,-4.7187976 h 0.1783849 l 0.2018224,0.7526023 v 0.212239 h -0.082031 z m 0.6367171,0 h 0.1770829 l -0.3124992,0.9648413 h -0.067708 v -0.2539056 z"
         id="path3434" />
    </g>
    <g
       aria-label="E"
       id="text13536-9-8-9"
       style="font-size:1.33333px;font-family:'Allerta Stencil';-inkscape-font-specification:'Allerta Stencil';text-align:center;text-anchor:middle;display:inline;stroke:#000000;stroke-width:0">
      <path
         d="m 5.4093897,-4.7161936 h 0.1588538 v 0.959633 H 5.4093897 Z m 0.5598945,0.5273424 H 5.6216288 v -0.1067705 h 0.3476554 z m -0.3476554,0.3138013 h 0.3880199 v 0.1184893 H 5.6216288 Z m 0.3880199,-0.8411437 v 0.1184893 H 5.6216288 v -0.1184893 z"
         id="path3437" />
    </g>
    <g
       aria-label="N"
       id="text13540-1-3-4"
       style="font-size:1.33333px;font-family:'Allerta Stencil';-inkscape-font-specification:'Allerta Stencil';text-align:center;text-anchor:middle;display:inline;stroke:#000000;stroke-width:0">
      <path
         d="m 7.5643362,-4.7161936 h 0.1588537 v 0.959633 H 7.5643362 L 7.2414203,-4.3242675 v -0.2994784 l 0.3229159,0.569009 z m -0.535155,0.959633 v -0.959633 H 7.188035 v 0.959633 z"
         id="path3440" />
    </g>
    <g
       aria-label="F"
       id="text13544-1-6-2"
       style="font-size:1.33333px;font-family:'Allerta Stencil';-inkscape-font-specification:'Allerta Stencil';text-align:center;text-anchor:middle;display:inline;stroke:#000000;stroke-width:0">
      <path
         d="m 8.7427228,-4.7161936 h 0.1588538 v 0.959633 H 8.7427228 Z m 0.5598945,0.5273424 H 8.9549619 v -0.1067705 h 0.3476554 z m 0.040365,-0.5273424 v 0.1184893 H 8.9549619 v -0.1184893 z"
         id="path3443" />
    </g>
    <g
       aria-label="I"
       id="text13548-0-6-09"
       style="font-size:1.33333px;font-family:'Allerta Stencil';-inkscape-font-specification:'Allerta Stencil';text-align:center;text-anchor:middle;display:inline;stroke:#000000;stroke-width:0">
      <path
         d="m 10.788945,-3.7565606 h -0.158854 v -0.959633 h 0.158854 z"
         id="path3446" />
    </g>
    <g
       aria-label="V"
       id="text13552-4-1-00"
       style="font-size:1.33333px;font-family:'Allerta Stencil';-inkscape-font-specification:'Allerta Stencil';text-align:center;text-anchor:middle;display:inline;stroke:#000000;stroke-width:0">
      <path
         d="m 11.969284,-4.7187976 h 0.178385 l 0.201822,0.7526023 v 0.212239 h -0.08203 z m 0.636717,0 h 0.177083 l -0.312499,0.9648413 h -0.06771 v -0.2539056 z"
         id="path3449" />
    </g>
    <g
       aria-label="E"
       id="text13556-9-4-1"
       style="font-size:1.33333px;font-family:'Allerta Stencil';-inkscape-font-specification:'Allerta Stencil';text-align:center;text-anchor:middle;display:inline;stroke:#000000;stroke-width:0">
      <path
         d="m 13.742721,-4.7161936 h 0.158854 v 0.959633 h -0.158854 z m 0.559895,0.5273424 H 13.95496 v -0.1067705 h 0.347656 z m -0.347656,0.3138013 h 0.38802 v 0.1184893 h -0.38802 z m 0.38802,-0.8411437 v 0.1184893 h -0.38802 v -0.1184893 z"
         id="path3452" />
    </g>
    <g
       aria-label="E"
       id="text13524-5-6-8"
       style="font-size:1.33333px;font-family:'Allerta Stencil';-inkscape-font-specification:'Allerta Stencil';text-align:center;text-anchor:middle;display:inline;stroke:#000000;stroke-width:0">
      <path
         d="m 0.40938865,-3.0495266 h 0.15885378 v 0.959633 H 0.40938865 Z M 0.9692831,-2.5221842 H 0.62162771 V -2.6289547 H 0.9692831 Z M 0.62162771,-2.2083829 H 1.0096476 v 0.1184893 H 0.62162771 Z M 1.0096476,-3.0495266 v 0.1184893 H 0.62162771 v -0.1184893 z"
         id="path3455" />
    </g>
    <g
       aria-label="L"
       id="text13528-8-4-9"
       style="font-size:1.33333px;font-family:'Allerta Stencil';-inkscape-font-specification:'Allerta Stencil';text-align:center;text-anchor:middle;display:inline;stroke:#000000;stroke-width:0">
      <path
         d="m 2.2349091,-3.0495266 v 0.8411437 h 0.4414052 v 0.1184893 H 2.0760554 v -0.959633 z"
         id="path3458" />
    </g>
    <g
       aria-label="E"
       id="text13532-6-5-6"
       style="font-size:1.33333px;font-family:'Allerta Stencil';-inkscape-font-specification:'Allerta Stencil';text-align:center;text-anchor:middle;display:inline;stroke:#000000;stroke-width:0">
      <path
         d="m 3.7427218,-3.0495266 h 0.1588538 v 0.959633 H 3.7427218 Z m 0.5598944,0.5273424 H 3.9549608 v -0.1067705 h 0.3476554 z m -0.3476554,0.3138013 h 0.3880199 v 0.1184893 H 3.9549608 Z m 0.3880199,-0.8411437 v 0.1184893 H 3.9549608 v -0.1184893 z"
         id="path3461" />
    </g>
    <g
       aria-label="V"
       id="text13536-9-8-4"
       style="font-size:1.33333px;font-family:'Allerta Stencil';-inkscape-font-specification:'Allerta Stencil';text-align:center;text-anchor:middle;display:inline;stroke:#000000;stroke-width:0">
      <path
         d="m 5.3026192,-3.0521306 h 0.178385 l 0.2018224,0.7526023 v 0.212239 h -0.082031 z m 0.6367172,0 H 6.1164193 L 5.80392,-2.0872893 h -0.067708 v -0.2539056 z"
         id="path3464" />
    </g>
    <g
       aria-label="E"
       id="text13540-1-3-6"
       style="font-size:1.33333px;font-family:'Allerta Stencil';-inkscape-font-specification:'Allerta Stencil';text-align:center;text-anchor:middle;display:inline;stroke:#000000;stroke-width:0">
      <path
         d="M 7.0760562,-3.0495266 H 7.23491 v 0.959633 H 7.0760562 Z m 0.5598945,0.5273424 H 7.2882953 v -0.1067705 h 0.3476554 z m -0.3476554,0.3138013 h 0.3880199 v 0.1184893 H 7.2882953 Z m 0.3880199,-0.8411437 v 0.1184893 H 7.2882953 v -0.1184893 z"
         id="path3467" />
    </g>
    <g
       aria-label="N"
       id="text13544-1-6-4"
       style="font-size:1.33333px;font-family:'Allerta Stencil';-inkscape-font-specification:'Allerta Stencil';text-align:center;text-anchor:middle;display:inline;stroke:#000000;stroke-width:0">
      <path
         d="m 9.2310036,-3.0495266 h 0.1588538 v 0.959633 H 9.2310036 L 8.9080877,-2.6576005 v -0.2994784 l 0.3229159,0.569009 z m -0.5351549,0.959633 v -0.959633 h 0.1588538 v 0.959633 z"
         id="path3470" />
    </g>
    <g
       aria-label="I"
       id="text13548-0-6-1"
       style="font-size:1.33333px;font-family:'Allerta Stencil';-inkscape-font-specification:'Allerta Stencil';text-align:center;text-anchor:middle;display:inline;stroke:#000000;stroke-width:0">
      <path
         d="m 10.788945,-2.0898936 h -0.158854 v -0.959633 h 0.158854 z"
         id="path3473" />
    </g>
    <g
       aria-label="N"
       id="text13552-4-1-3"
       style="font-size:1.33333px;font-family:'Allerta Stencil';-inkscape-font-specification:'Allerta Stencil';text-align:center;text-anchor:middle;display:inline;stroke:#000000;stroke-width:0">
      <path
         d="m 12.564335,-3.0495266 h 0.158853 v 0.959633 h -0.158853 l -0.322916,-0.5677069 v -0.2994784 l 0.322916,0.569009 z m -0.535155,0.959633 v -0.959633 h 0.158854 v 0.959633 z"
         id="path3476" />
    </g>
    <g
       aria-label="E"
       id="text13556-9-4-15"
       style="font-size:1.33333px;font-family:'Allerta Stencil';-inkscape-font-specification:'Allerta Stencil';text-align:center;text-anchor:middle;display:inline;stroke:#000000;stroke-width:0">
      <path
         d="m 13.742721,-3.0495266 h 0.158854 v 0.959633 h -0.158854 z m 0.559895,0.5273424 H 13.95496 v -0.1067705 h 0.347656 z m -0.347656,0.3138013 h 0.38802 v 0.1184893 h -0.38802 z m 0.38802,-0.8411437 v 0.1184893 h -0.38802 v -0.1184893 z"
         id="path3479" />
    </g>
    <g
       aria-label="O"
       id="text13524-5-6-4"
       style="font-size:1.33333px;font-family:'Allerta Stencil';-inkscape-font-specification:'Allerta Stencil';text-align:center;text-anchor:middle;display:inline;stroke:#000000;stroke-width:0">
      <path
         d="m 0.30977954,-0.90369504 q 0,-0.11588516 0.0273437,-0.20442656 0.0286458,-0.089843 0.0781248,-0.1510413 0.0507811,-0.0625 0.11848929,-0.095052 0.0690103,-0.033854 0.14973921,-0.039062 v 0.130208 q -0.0442707,0.00521 -0.0833331,0.027344 -0.0390624,0.022135 -0.0677082,0.065104 -0.0286458,0.042969 -0.0455728,0.1093748 -0.016927,0.0664061 -0.0182291,0.15755166 0.001302,0.0924477 0.0182291,0.15885377 0.016927,0.065104 0.0455728,0.10937473 0.0299478,0.0442707 0.0690103,0.0677082 0.0390624,0.0221354 0.082031,0.0260416 v 0.12890593 q -0.0794269,-0.005208 -0.14843713,-0.0377603 -0.0690103,-0.0338541 -0.11979137,-0.0950518 -0.049479,-0.0624999 -0.0781248,-0.15234337 -0.0273437,-0.0898435 -0.0273437,-0.20572866 z m 0.4257802,-0.48958216 q 0.0794269,0.00391 0.14713505,0.03776 0.0690103,0.033854 0.11848931,0.096354 0.050781,0.061198 0.079427,0.1510413 0.028646,0.088541 0.028646,0.20442656 0,0.11588513 -0.028646,0.20572866 -0.028646,0.0898435 -0.079427,0.15234337 -0.0494791,0.0611978 -0.11718723,0.0950518 -0.0677082,0.032552 -0.14843713,0.0377603 v -0.12890593 q 0.0442707,-0.005208 0.0833331,-0.0273437 0.0390624,-0.0234374 0.0677082,-0.0664061 0.0286458,-0.0442707 0.0455728,-0.10937473 0.0169271,-0.0664061 0.0182291,-0.15885377 -0.001302,-0.0924477 -0.0182291,-0.15755166 -0.016927,-0.066406 -0.0468749,-0.1093748 -0.0286458,-0.044271 -0.0677082,-0.066406 -0.0390624,-0.023437 -0.082031,-0.027344 z"
         id="path3482" />
    </g>
    <g
       aria-label="N"
       id="text13528-8-4-3"
       style="font-size:1.33333px;font-family:'Allerta Stencil';-inkscape-font-specification:'Allerta Stencil';text-align:center;text-anchor:middle;display:inline;stroke:#000000;stroke-width:0">
      <path
         d="m 2.5643354,-1.3828605 h 0.1588538 v 0.95963301 H 2.5643354 L 2.2414196,-0.99093442 V -1.2904128 l 0.3229158,0.56900897 z M 2.0291805,-0.42322749 V -1.3828605 h 0.1588538 v 0.95963301 z"
         id="path3485" />
    </g>
    <g
       aria-label="E"
       id="text13532-6-5-2"
       style="font-size:1.33333px;font-family:'Allerta Stencil';-inkscape-font-specification:'Allerta Stencil';text-align:center;text-anchor:middle;display:inline;stroke:#000000;stroke-width:0">
      <path
         d="m 3.7427218,-1.3828605 h 0.1588538 v 0.95963301 H 3.7427218 Z m 0.5598944,0.52734241 H 3.9549608 v -0.10677057 h 0.3476554 z m -0.3476554,0.31380131 h 0.3880199 v 0.11848929 H 3.9549608 Z M 4.3429807,-1.3828605 v 0.1184893 H 3.9549608 v -0.1184893 z"
         id="path3488" />
    </g>
    <g
       aria-label="I"
       id="text13536-9-8-8"
       style="font-size:1.33333px;font-family:'Allerta Stencil';-inkscape-font-specification:'Allerta Stencil';text-align:center;text-anchor:middle;display:inline;stroke:#000000;stroke-width:0">
      <path
         d="M 5.7889461,-0.42322749 H 5.6300923 V -1.3828605 h 0.1588538 z"
         id="path3491" />
    </g>
    <g
       aria-label="G"
       id="text13540-1-3-8"
       style="font-size:1.33333px;font-family:'Allerta Stencil';-inkscape-font-specification:'Allerta Stencil';text-align:center;text-anchor:middle;display:inline;stroke:#000000;stroke-width:0">
      <path
         d="m 7.5767059,-1.1934079 q -0.03125,-0.03776 -0.071614,-0.054687 -0.040364,-0.016927 -0.083333,-0.016927 h -0.00521 v -0.1289059 h 0.0013 q 0.078125,0 0.145833,0.026042 0.067708,0.026042 0.1210935,0.078125 z m -0.5585924,0.29036389 q 0,-0.11197889 0.026042,-0.19791619 0.026042,-0.087239 0.071614,-0.147135 0.045573,-0.061198 0.1093747,-0.096354 0.063802,-0.035156 0.1380205,-0.044271 v 0.130208 q -0.039062,0.010417 -0.072916,0.035156 -0.032552,0.024739 -0.058594,0.06901 -0.024739,0.042969 -0.039062,0.1054685 -0.014323,0.0611978 -0.015625,0.14583299 0.0013,0.0846352 0.015625,0.14843713 0.014323,0.0638019 0.039062,0.11067681 0.026042,0.0455728 0.058594,0.0729165 0.033854,0.0273437 0.072916,0.0377603 v 0.11848929 q -0.074219,-0.009115 -0.1380205,-0.0442707 -0.063802,-0.0364582 -0.1093747,-0.097656 -0.045573,-0.0611978 -0.071614,-0.14713505 -0.026042,-0.0872394 -0.026042,-0.19921826 z m 0.7161441,-0.0104166 v 0.37109283 q -0.029948,0.0377603 -0.067708,0.0624998 -0.036458,0.0234374 -0.078125,0.0390624 -0.040364,0.015625 -0.084635,0.0221354 -0.042969,0.00651 -0.085937,0.00651 h -0.0013 v -0.11458305 q 0.015625,0 0.03776,-0.001302 0.023437,-0.002604 0.046875,-0.00651 0.024739,-0.005208 0.045573,-0.0130208 0.022135,-0.007812 0.032552,-0.0221354 v -0.23697858 h -0.16276 v -0.10677057 z"
         id="path3494" />
    </g>
    <g
       aria-label="H"
       id="text13544-1-6-45"
       style="font-size:1.33333px;font-family:'Allerta Stencil';-inkscape-font-specification:'Allerta Stencil';text-align:center;text-anchor:middle;display:inline;stroke:#000000;stroke-width:0">
      <path
         d="m 9.4080859,-1.3828605 v 0.95963301 H 9.2518363 v -0.4322906 H 8.889858 V -0.96228866 H 9.2518363 V -1.3828605 Z m -0.730467,0 h 0.1588538 v 0.95963301 H 8.6776189 Z"
         id="path3497" />
    </g>
    <g
       aria-label="T"
       id="text13548-0-6-10"
       style="font-size:1.33333px;font-family:'Allerta Stencil';-inkscape-font-specification:'Allerta Stencil';text-align:center;text-anchor:middle;display:inline;stroke:#000000;stroke-width:0">
      <path
         d="M 11.07475,-1.3828605 V -1.27609 h -0.286458 v 0.85286251 H 10.630741 V -1.27609 h -0.286458 v -0.1067705 z"
         id="path3500" />
    </g>
    <g
       aria-label="E"
       id="text13552-4-1-03"
       style="font-size:1.33333px;font-family:'Allerta Stencil';-inkscape-font-specification:'Allerta Stencil';text-align:center;text-anchor:middle;display:inline;stroke:#000000;stroke-width:0">
      <path
         d="m 12.076054,-1.3828605 h 0.158854 v 0.95963301 h -0.158854 z m 0.559895,0.52734241 h -0.347656 v -0.10677057 h 0.347656 z m -0.347656,0.31380131 h 0.38802 v 0.11848929 h -0.38802 z m 0.38802,-0.84114372 v 0.1184893 h -0.38802 v -0.1184893 z"
         id="path3503" />
    </g>
    <g
       aria-label="N"
       id="text13556-9-4-02"
       style="font-size:1.33333px;font-family:'Allerta Stencil';-inkscape-font-specification:'Allerta Stencil';text-align:center;text-anchor:middle;display:inline;stroke:#000000;stroke-width:0">
      <path
         d="m 14.231002,-1.3828605 h 0.158853 v 0.95963301 H 14.231002 L 13.908086,-0.99093442 V -1.2904128 l 0.322916,0.56900897 z m -0.535155,0.95963301 V -1.3828605 h 0.158854 v 0.95963301 z"
         id="path3506" />
    </g>
    <g
       aria-label="T"
       id="text13524-5-6-7"
       style="font-size:1.33333px;font-family:'Allerta Stencil';-inkscape-font-specification:'Allerta Stencil';text-align:center;text-anchor:middle;display:inline;stroke:#000000;stroke-width:0">
      <path
         d="M 1.0747516,0.28380651 V 0.39057708 H 0.78829398 V 1.2434396 H 0.63074229 V 0.39057708 H 0.34428466 V 0.28380651 Z"
         id="path3509" />
    </g>
    <g
       aria-label="W"
       id="text13528-8-4-0"
       style="font-size:1.33333px;font-family:'Allerta Stencil';-inkscape-font-specification:'Allerta Stencil';text-align:center;text-anchor:middle;display:inline;stroke:#000000;stroke-width:0">
      <path
         d="M 2.1047011,1.1093252 2.2869923,0.28120227 h 0.061198 V 0.62885766 L 2.2062633,1.2460436 H 2.0018367 L 1.7583478,0.28120227 H 1.9354307 Z M 2.8169389,0.28120227 H 2.9940218 L 2.7349078,1.2460436 H 2.5317834 L 2.4015753,0.65359718 V 0.28120227 h 0.0625 L 2.6333456,1.1093252 Z"
         id="path3512" />
    </g>
    <g
       aria-label="E"
       id="text13532-6-5-7"
       style="font-size:1.33333px;font-family:'Allerta Stencil';-inkscape-font-specification:'Allerta Stencil';text-align:center;text-anchor:middle;display:inline;stroke:#000000;stroke-width:0">
      <path
         d="M 3.7427218,0.28380651 H 3.9015756 V 1.2434396 H 3.7427218 Z M 4.3026162,0.81114896 H 3.9549608 V 0.70437839 H 4.3026162 Z M 3.9549608,1.1249503 H 4.3429807 V 1.2434396 H 3.9549608 Z M 4.3429807,0.28380651 V 0.4022958 H 3.9549608 V 0.28380651 Z"
         id="path3515" />
    </g>
    <g
       aria-label="L"
       id="text13536-9-8-7"
       style="font-size:1.33333px;font-family:'Allerta Stencil';-inkscape-font-specification:'Allerta Stencil';text-align:center;text-anchor:middle;display:inline;stroke:#000000;stroke-width:0">
      <path
         d="M 5.5682436,0.28380651 V 1.1249503 H 6.0096488 V 1.2434396 H 5.4093898 V 0.28380651 Z"
         id="path3518" />
    </g>
    <g
       aria-label="V"
       id="text13540-1-3-1"
       style="font-size:1.33333px;font-family:'Allerta Stencil';-inkscape-font-specification:'Allerta Stencil';text-align:center;text-anchor:middle;display:inline;stroke:#000000;stroke-width:0">
      <path
         d="m 6.9692857,0.28120227 h 0.178385 L 7.3494931,1.0338046 v 0.212239 H 7.267462 Z m 0.6367172,0 H 7.7830858 L 7.4705865,1.2460436 H 7.4028784 V 0.99213801 Z"
         id="path3521" />
    </g>
    <g
       aria-label="E"
       id="text13544-1-6-25"
       style="font-size:1.33333px;font-family:'Allerta Stencil';-inkscape-font-specification:'Allerta Stencil';text-align:center;text-anchor:middle;display:inline;stroke:#000000;stroke-width:0">
      <path
         d="M 8.7427232,0.28380651 H 8.901577 V 1.2434396 H 8.7427232 Z M 9.3026177,0.81114896 H 8.9549623 V 0.70437839 H 9.3026177 Z M 8.9549623,1.1249503 H 9.3429821 V 1.2434396 H 8.9549623 Z M 9.3429821,0.28380651 V 0.4022958 H 8.9549623 V 0.28380651 Z"
         id="path3524" />
    </g>
    <g
       aria-label="S"
       id="text13548-0-6-5"
       style="font-size:1.33333px;font-family:'Allerta Stencil';-inkscape-font-specification:'Allerta Stencil';text-align:center;text-anchor:middle;display:inline;stroke:#000000;stroke-width:0">
      <path
         d="m 10.886599,0.4374519 q -0.0065,-0.002604 -0.01563,-0.009115 -0.0091,-0.00651 -0.02604,-0.0117187 -0.01693,-0.00651 -0.04297,-0.0104166 -0.02604,-0.003906 -0.06641,-0.001302 V 0.2733898 q 0.05729,0.001302 0.115885,0.0130208 0.0599,0.0104166 0.09635,0.0338541 -0.0078,0.016927 -0.01823,0.0377603 -0.01042,0.0195312 -0.01953,0.0377603 -0.0091,0.016927 -0.01563,0.0286458 -0.0065,0.0117187 -0.0078,0.0130208 z m -0.449217,0.10416641 q 0,-0.0572915 0.01953,-0.10286433 0.01953,-0.0455728 0.05208,-0.0794269 0.03385,-0.0351562 0.07813,-0.0546874 0.04557,-0.0208333 0.09505,-0.0273437 v 0.13671841 q -0.04167,0.0143229 -0.06901,0.0507811 -0.02734,0.0351562 -0.02734,0.0716144 0,0.0507811 0.02734,0.082031 0.02734,0.0312499 0.06901,0.0546874 v 0.14843713 q -0.04297,-0.0208333 -0.08594,-0.0442707 -0.04297,-0.0247395 -0.07812,-0.0572915 -0.03516,-0.032552 -0.05859,-0.0755206 -0.02214,-0.0429686 -0.02214,-0.10286433 z m 0.02083,0.53124869 q 0.01823,0.010417 0.04557,0.020833 0.02865,0.00911 0.05859,0.018229 0.02995,0.00781 0.0599,0.013021 0.02995,0.00521 0.05599,0.00521 h 0.0039 v 0.1236976 h -0.0026 q -0.03125,0 -0.0651,-0.00391 -0.03255,-0.0026 -0.06641,-0.010417 -0.03386,-0.00781 -0.0651,-0.020833 -0.02995,-0.014323 -0.05208,-0.033854 z M 10.735558,0.69917 q 0.04297,0.0195312 0.08724,0.0416666 0.04557,0.0221354 0.08203,0.0546874 0.03646,0.0312499 0.0599,0.0768227 0.02344,0.0455728 0.02344,0.11328097 0,0.0468749 -0.01823,0.0911456 -0.01693,0.044271 -0.04948,0.080729 -0.03125,0.035156 -0.07812,0.059896 -0.04687,0.02474 -0.106771,0.032552 V 1.1249502 q 0.106771,-0.026042 0.106771,-0.14192673 0,-0.0455728 -0.02995,-0.0755206 -0.02995,-0.0299478 -0.07682,-0.0559895 z"
         id="path3527" />
    </g>
    <g
       aria-label="I"
       id="text13552-4-1-1"
       style="font-size:1.33333px;font-family:'Allerta Stencil';-inkscape-font-specification:'Allerta Stencil';text-align:center;text-anchor:middle;display:inline;stroke:#000000;stroke-width:0">
      <path
         d="M 12.455611,1.2434396 H 12.296757 V 0.28380651 h 0.158854 z"
         id="path3530" />
    </g>
    <g
       aria-label="X"
       id="text13556-9-4-4"
       style="font-size:1.33333px;font-family:'Allerta Stencil';-inkscape-font-specification:'Allerta Stencil';text-align:center;text-anchor:middle;display:inline;stroke:#000000;stroke-width:0">
      <path
         d="m 13.681524,0.28380651 h 0.178385 l 0.156249,0.35937411 v 0.29817635 l -0.13802,0.30208263 h -0.180989 l 0.243489,-0.46614473 z m 0.722654,0 -0.259114,0.49348836 0.243489,0.46614473 H 14.207564 L 14.069544,0.91401329 V 0.61713902 l 0.156249,-0.33333251 z"
         id="path3533" />
    </g>
  </g>
</svg>
