<?xml version="1.0" encoding="UTF-8"?>
<svg xmlns="http://www.w3.org/2000/svg" version="1.1" viewBox="0 0 425.2 425.2">
  <!-- Generator: Adobe Illustrator 29.8.2, SVG Export Plug-In . SVG Version: 2.1.1 Build 3)  -->
  <defs>
    <style>
      .st0 {
        fill: none;
      }

      .st1 {
        fill: #fff;
        stroke: #1d1d1b;
        stroke-miterlimit: 5.67;
        stroke-width: .5px;
      }

      .st2 {
        fill: #1d1d1b;
      }
    </style>
  </defs>
  <g id="Laag_2">
    <rect class="st1" width="425.2" height="425.2"/>
  </g>
  <g id="EN">
    <g>
      <rect class="st0" width="47.24" height="47.24"/>
      <path class="st2" d="M34.19,38.04h-4.14l-6.38-20.48-6.44,20.48h-4.17l8.61-27.31h3.97l8.54,27.31ZM25.88,29.36l.97,3.01h-6.38l.93-3.01h4.47Z"/>
    </g>
    <g>
      <rect class="st0" x="47.24" width="47.24" height="47.24"/>
      <path class="st2" d="M65.38,23.79c0,1.91.11,3.52.33,4.84.22,1.32.54,2.41.97,3.27.42.85.93,1.49,1.52,1.91.59.42,1.25.67,1.99.74v3.67c-1.36-.1-2.59-.46-3.69-1.09-1.1-.63-2.03-1.53-2.79-2.71-.76-1.17-1.35-2.62-1.77-4.32-.42-1.71-.63-3.66-.63-5.86v-13.54h4.07v13.1ZM80.43,10.69v13.54c0,2.2-.21,4.16-.63,5.86-.42,1.71-1.02,3.15-1.79,4.32-.77,1.18-1.7,2.08-2.79,2.71-1.09.63-2.31,1-3.67,1.09v-3.67c.73-.1,1.4-.35,1.99-.76.59-.41,1.1-1.03,1.52-1.87.42-.84.75-1.92.98-3.25.23-1.32.35-2.95.35-4.88v-13.1h4.04Z"/>
    </g>
    <g>
      <rect class="st0" x="94.49" width="47.24" height="47.24"/>
      <path class="st2" d="M107.71,24.23c0-2.2.24-4.15.72-5.84.48-1.69,1.15-3.13,2-4.3.86-1.17,1.87-2.08,3.05-2.71,1.18-.63,2.45-1,3.8-1.09v3.71c-.76.1-1.46.36-2.12.78-.66.42-1.23,1.04-1.72,1.86s-.88,1.86-1.18,3.12-.46,2.76-.48,4.49c.02,1.76.18,3.26.48,4.51.3,1.25.7,2.29,1.2,3.14.5.84,1.08,1.48,1.74,1.91.66.43,1.35.69,2.09.76v3.6h-.6c-1.29-.17-2.49-.59-3.59-1.26-1.1-.67-2.05-1.58-2.85-2.75-.8-1.16-1.42-2.57-1.87-4.23-.45-1.66-.67-3.55-.67-5.68ZM128.24,24.23c0,1.88-.2,3.59-.6,5.12-.4,1.53-.95,2.88-1.64,4.04-.69,1.16-1.49,2.12-2.4,2.86-.91.74-1.88,1.22-2.9,1.45l4.61,6.61h-4.41l-2.24-4.27v-5.49c.76-.1,1.46-.36,2.12-.8.66-.43,1.23-1.06,1.72-1.89.49-.83.88-1.87,1.18-3.12.3-1.25.46-2.75.48-4.51-.02-1.76-.18-3.26-.48-4.51-.3-1.25-.7-2.29-1.2-3.12-.5-.83-1.08-1.46-1.74-1.89-.66-.43-1.35-.69-2.09-.76v-3.67c1.36.07,2.62.43,3.79,1.08,1.17.64,2.18,1.55,3.04,2.73.86,1.18,1.53,2.61,2.02,4.3.49,1.69.73,3.64.73,5.84Z"/>
    </g>
    <g>
      <rect class="st0" x="141.73" width="47.24" height="47.24"/>
      <path class="st2" d="M159.86,23.79c0,1.91.11,3.52.33,4.84.22,1.32.54,2.41.97,3.27.42.85.93,1.49,1.52,1.91.59.42,1.25.67,1.99.74v3.67c-1.36-.1-2.59-.46-3.69-1.09-1.1-.63-2.03-1.53-2.79-2.71-.76-1.17-1.35-2.62-1.77-4.32-.42-1.71-.63-3.66-.63-5.86v-13.54h4.07v13.1ZM174.92,10.69v13.54c0,2.2-.21,4.16-.63,5.86-.42,1.71-1.02,3.15-1.79,4.32-.77,1.18-1.7,2.08-2.79,2.71-1.09.63-2.31,1-3.67,1.09v-3.67c.73-.1,1.4-.35,1.99-.76.59-.41,1.1-1.03,1.52-1.87.42-.84.75-1.92.98-3.25.23-1.32.35-2.95.35-4.88v-13.1h4.04Z"/>
    </g>
    <g>
      <rect class="st0" x="188.98" width="47.24" height="47.24"/>
      <path class="st2" d="M223.16,38.04h-4.14l-6.38-20.48-6.44,20.48h-4.17l8.61-27.31h3.97l8.54,27.31ZM214.85,29.36l.97,3.01h-6.38l.93-3.01h4.47Z"/>
    </g>
    <g>
      <rect class="st0" x="236.22" width="47.24" height="47.24"/>
      <path class="st2" d="M251.83,10.69h4v27.35h-4V10.69ZM268.52,38.04h-4.24l-4.64-9.91c-.07,0-.14,0-.22.02-.08.01-.2.02-.35.02h-1.87v-3.27h2.27c.49,0,.98-.09,1.47-.28s.93-.49,1.33-.91c.4-.42.72-1.01.97-1.76.25-.75.37-1.69.37-2.8,0-.45-.06-.96-.17-1.54-.11-.58-.34-1.14-.68-1.67-.35-.53-.83-.98-1.45-1.34-.62-.36-1.45-.54-2.47-.54h-1.64v-3.38h1.7c1.05,0,2.08.19,3.1.56s1.94.93,2.75,1.67c.81.74,1.47,1.64,1.97,2.69.5,1.05.75,2.23.75,3.54,0,1.98-.41,3.66-1.24,5.05-.82,1.39-1.94,2.41-3.34,3.08l5.61,10.76Z"/>
    </g>
    <g>
      <rect class="st0" x="283.47" width="47.24" height="47.24"/>
      <path class="st2" d="M316.45,10.69v3.04h-7.34v24.31h-4.04V13.73h-7.34v-3.04h18.72Z"/>
    </g>
    <g>
      <rect class="st0" x="330.71" width="47.24" height="47.24"/>
      <path class="st2" d="M347.02,10.69h4.07v27.35h-4.07V10.69ZM362.41,10.69v3.38h-9.95v-3.38h9.95ZM361.37,25.72h-8.91v-3.04h8.91v3.04ZM352.46,34.66h9.95v3.38h-9.95v-3.38Z"/>
    </g>
    <g>
      <rect class="st0" x="377.95" width="47.24" height="47.24"/>
      <path class="st2" d="M393.57,10.69h4v27.35h-4V10.69ZM410.25,38.04h-4.24l-4.64-9.91c-.07,0-.14,0-.22.02-.08.01-.2.02-.35.02h-1.87v-3.27h2.27c.49,0,.98-.09,1.47-.28s.93-.49,1.33-.91c.4-.42.72-1.01.97-1.76.25-.75.37-1.69.37-2.8,0-.45-.06-.96-.17-1.54-.11-.58-.34-1.14-.68-1.67-.35-.53-.83-.98-1.45-1.34-.62-.36-1.45-.54-2.47-.54h-1.64v-3.38h1.7c1.05,0,2.08.19,3.1.56s1.94.93,2.75,1.67c.81.74,1.47,1.64,1.97,2.69.5,1.05.75,2.23.75,3.54,0,1.98-.41,3.66-1.24,5.05-.82,1.39-1.94,2.41-3.34,3.08l5.61,10.76Z"/>
    </g>
    <g>
      <rect class="st0" x="0" y="47.24" width="47.24" height="47.24"/>
      <path class="st2" d="M32.98,57.93v3.04h-7.34v24.31h-4.04v-24.31h-7.34v-3.04h18.72Z"/>
    </g>
    <g>
      <rect class="st0" x="47.24" y="47.24" width="47.24" height="47.24"/>
      <path class="st2" d="M63.94,81.54l4.67-23.6h1.57v9.91l-3.64,17.59h-5.24l-6.24-27.5h4.54l4.34,23.6ZM82.2,57.93h4.54l-6.64,27.5h-5.21l-3.34-16.88v-10.61h1.6l4.34,23.6,4.71-23.6Z"/>
    </g>
    <g>
      <rect class="st0" x="94.49" y="47.24" width="47.24" height="47.24"/>
      <path class="st2" d="M110.8,57.93h4.07v27.35h-4.07v-27.35ZM126.19,57.93v3.38h-9.95v-3.38h9.95ZM125.15,72.96h-8.91v-3.04h8.91v3.04ZM116.24,81.91h9.95v3.38h-9.95v-3.38Z"/>
    </g>
    <g>
      <rect class="st0" x="141.73" y="47.24" width="47.24" height="47.24"/>
      <path class="st2" d="M156.48,85.28v-27.35h4.07v27.35h-4.07ZM170.19,57.93h4.07v27.35h-4.07l-8.28-16.18v-8.54l8.28,16.22v-18.85Z"/>
    </g>
    <g>
      <rect class="st0" x="188.98" y="47.24" width="47.24" height="47.24"/>
      <path class="st2" d="M221.96,57.93v3.04h-7.34v24.31h-4.04v-24.31h-7.34v-3.04h18.72Z"/>
    </g>
    <g>
      <rect class="st0" x="236.22" y="47.24" width="47.24" height="47.24"/>
      <path class="st2" d="M255.29,57.93l3.71,10.65-1.8,4.86-6.47-15.51h4.57ZM264.47,57.93h4.57l-7.31,16.22v11.13h-4.07v-9.13l6.81-18.22Z"/>
    </g>
    <g>
      <rect class="st0" x="283.47" y="47.24" width="47.24" height="47.24"/>
      <path class="st2" d="M316.45,57.93v3.04h-7.34v24.31h-4.04v-24.31h-7.34v-3.04h18.72Z"/>
    </g>
    <g>
      <rect class="st0" x="330.71" y="47.24" width="47.24" height="47.24"/>
      <path class="st2" d="M347.02,57.93h4.07v27.35h-4.07v-27.35ZM362.41,57.93v3.38h-9.95v-3.38h9.95ZM361.37,72.96h-8.91v-3.04h8.91v3.04ZM352.46,81.91h9.95v3.38h-9.95v-3.38Z"/>
    </g>
    <g>
      <rect class="st0" x="377.95" y="47.24" width="47.24" height="47.24"/>
      <path class="st2" d="M392.7,85.28v-27.35h4.07v27.35h-4.07ZM406.42,57.93h4.07v27.35h-4.07l-8.28-16.18v-8.54l8.28,16.22v-18.85Z"/>
    </g>
    <g>
      <rect class="st0" x="0" y="94.49" width="47.24" height="47.24"/>
      <path class="st2" d="M16.93,105.18h4.07v27.35h-4.07v-27.35ZM32.32,105.18v3.38h-9.95v-3.38h9.95ZM31.28,120.21h-8.91v-3.04h8.91v3.04Z"/>
    </g>
    <g>
      <rect class="st0" x="47.24" y="94.49" width="47.24" height="47.24"/>
      <path class="st2" d="M72.94,132.53h-4.07v-27.35h4.07v27.35Z"/>
    </g>
    <g>
      <rect class="st0" x="94.49" y="94.49" width="47.24" height="47.24"/>
      <path class="st2" d="M107.71,105.18h4.57l5.17,21.45v6.05h-2.1l-7.64-27.5ZM124.04,105.18h4.54l-8.01,27.5h-1.74v-7.24l5.21-20.26Z"/>
    </g>
    <g>
      <rect class="st0" x="141.73" y="94.49" width="47.24" height="47.24"/>
      <path class="st2" d="M158.05,105.18h4.07v27.35h-4.07v-27.35ZM173.43,105.18v3.38h-9.95v-3.38h9.95ZM172.4,120.21h-8.91v-3.04h8.91v3.04ZM163.49,129.15h9.95v3.38h-9.95v-3.38Z"/>
    </g>
    <g>
      <rect class="st0" x="188.98" y="94.49" width="47.24" height="47.24"/>
      <path class="st2" d="M203.35,105.18h4.57l4.01,10.24v8.5l-3.54,8.61h-4.64l6.24-13.29-6.64-14.06ZM221.88,105.18l-6.64,14.06,6.24,13.29h-4.64l-3.54-9.39v-8.46l4.01-9.5h4.57Z"/>
    </g>
    <g>
      <rect class="st0" x="236.22" y="94.49" width="47.24" height="47.24"/>
      <path class="st2" d="M250.48,105.18h4.07v27.35h-4.07v-27.35ZM269.21,105.18v27.35h-4v-12.32h-9.28v-3.04h9.28v-11.99h4Z"/>
    </g>
    <g>
      <rect class="st0" x="283.47" y="94.49" width="47.24" height="47.24"/>
      <path class="st2" d="M317.65,132.53h-4.14l-6.38-20.48-6.44,20.48h-4.17l8.61-27.31h3.97l8.54,27.31ZM309.34,123.84l.97,3.01h-6.38l.93-3.01h4.47Z"/>
    </g>
    <g>
      <rect class="st0" x="330.71" y="94.49" width="47.24" height="47.24"/>
      <path class="st2" d="M351.76,105.18v23.97h11.31v3.38h-15.39v-27.35h4.07Z"/>
    </g>
    <g>
      <rect class="st0" x="377.95" y="94.49" width="47.24" height="47.24"/>
      <path class="st2" d="M394.88,105.18h4.07v27.35h-4.07v-27.35ZM410.27,105.18v3.38h-9.95v-3.38h9.95ZM409.24,120.21h-8.91v-3.04h8.91v3.04Z"/>
    </g>
    <g>
      <rect class="st0" x="0" y="141.73" width="47.24" height="47.24"/>
      <path class="st2" d="M16.56,152.42h4.01v27.35h-4.01v-27.35ZM23.64,152.42c1.05,0,2.08.19,3.1.56,1.02.37,1.94.93,2.75,1.67.81.74,1.47,1.64,1.97,2.69.5,1.05.75,2.23.75,3.54,0,1.39-.21,2.64-.63,3.77-.42,1.13-1.01,2.07-1.77,2.84-.76.77-1.67,1.36-2.74,1.78-1.07.42-2.25.63-3.54.63h-1.6v-3.27h2.3c.49,0,.97-.09,1.45-.28s.92-.49,1.32-.91c.4-.42.72-1.01.97-1.76.24-.75.37-1.69.37-2.8,0-.45-.06-.96-.17-1.54-.11-.58-.34-1.14-.68-1.67-.35-.53-.83-.98-1.45-1.34-.62-.36-1.45-.54-2.47-.54h-1.64v-3.38h1.7Z"/>
    </g>
    <g>
      <rect class="st0" x="47.24" y="141.73" width="47.24" height="47.24"/>
      <path class="st2" d="M81.43,179.77h-4.14l-6.38-20.48-6.44,20.48h-4.17l8.61-27.31h3.97l8.54,27.31ZM73.12,171.09l.97,3.01h-6.38l.93-3.01h4.47Z"/>
    </g>
    <g>
      <rect class="st0" x="94.49" y="141.73" width="47.24" height="47.24"/>
      <path class="st2" d="M112.47,174.76c.31.2.71.39,1.19.58.48.19.97.36,1.49.52.51.16,1.02.29,1.54.39.51.1.99.15,1.44.15h.1v3.53h-.07c-.53,0-1.08-.03-1.65-.09s-1.14-.17-1.72-.32c-.58-.15-1.13-.35-1.65-.61-.52-.26-.97-.58-1.35-.95l.7-3.19ZM111.94,159.62c0-1.09.17-2.07.5-2.93.33-.87.78-1.63,1.35-2.28.57-.66,1.23-1.17,2-1.56.77-.38,1.57-.64,2.42-.76v3.9c-.71.27-1.3.75-1.77,1.43-.47.68-.7,1.37-.7,2.06,0,.96.23,1.74.7,2.34.47.59,1.06,1.11,1.77,1.56v4.23c-.73-.4-1.47-.82-2.2-1.28-.73-.46-1.4-1-2-1.61-.6-.62-1.1-1.34-1.49-2.15-.39-.82-.58-1.79-.58-2.93ZM123.45,156.65c-.11-.05-.25-.14-.4-.26-.16-.12-.38-.24-.67-.35-.29-.11-.66-.2-1.1-.28-.45-.07-1.01-.09-1.7-.04v-3.75c.98.02,1.97.14,2.99.35,1.01.21,1.83.54,2.45.98-.13.32-.29.67-.47,1.06-.18.38-.35.74-.5,1.08s-.29.61-.4.83-.18.35-.2.37ZM119.58,164.11c.73.37,1.49.77,2.25,1.19.77.42,1.46.93,2.09,1.54.62.61,1.13,1.34,1.54,2.21.4.87.6,1.94.6,3.23,0,.89-.15,1.76-.45,2.6-.3.84-.72,1.6-1.27,2.28-.55.68-1.22,1.26-2.02,1.73-.8.47-1.71.78-2.74.93v-3.56c1.82-.49,2.74-1.84,2.74-4.04,0-.87-.26-1.58-.77-2.15-.51-.57-1.17-1.1-1.97-1.6v-4.34Z"/>
    </g>
    <g>
      <rect class="st0" x="141.73" y="141.73" width="47.24" height="47.24"/>
      <path class="st2" d="M174.72,152.42v3.04h-7.34v24.31h-4.04v-24.31h-7.34v-3.04h18.72Z"/>
    </g>
    <g>
      <rect class="st0" x="188.98" y="141.73" width="47.24" height="47.24"/>
      <path class="st2" d="M202.35,165.97c0-2.2.24-4.15.72-5.84.48-1.69,1.15-3.13,2-4.3.86-1.17,1.87-2.08,3.04-2.71,1.17-.63,2.44-1,3.82-1.09v3.71c-.76.1-1.47.36-2.14.78-.67.42-1.25,1.04-1.74,1.86-.49.82-.88,1.86-1.17,3.12-.29,1.26-.45,2.76-.47,4.49.02,1.76.18,3.26.47,4.51.29,1.25.68,2.29,1.18,3.14.5.84,1.08,1.48,1.75,1.91.67.43,1.37.69,2.1.76v3.67c-1.36-.1-2.63-.46-3.8-1.09-1.18-.63-2.2-1.53-3.05-2.71-.86-1.17-1.52-2.62-2-4.32-.48-1.71-.72-3.66-.72-5.86ZM213.27,152.01c1.36.07,2.62.43,3.79,1.08,1.17.64,2.18,1.55,3.04,2.73.86,1.18,1.53,2.61,2.02,4.3.49,1.69.73,3.64.73,5.84s-.25,4.16-.73,5.86-1.16,3.15-2.02,4.32c-.86,1.18-1.86,2.08-3.02,2.71s-2.43,1-3.8,1.09v-3.67c.76-.1,1.47-.36,2.14-.8.67-.43,1.25-1.06,1.74-1.89.49-.83.88-1.87,1.17-3.12.29-1.25.44-2.75.47-4.51-.02-1.76-.18-3.26-.47-4.51-.29-1.25-.68-2.29-1.18-3.12-.5-.83-1.08-1.46-1.75-1.89-.67-.43-1.37-.69-2.1-.76v-3.67Z"/>
    </g>
    <g>
      <rect class="st0" x="236.22" y="141.73" width="47.24" height="47.24"/>
      <path class="st2" d="M253.15,152.42h4.07v27.35h-4.07v-27.35ZM268.54,152.42v3.38h-9.95v-3.38h9.95ZM267.5,167.45h-8.91v-3.04h8.91v3.04Z"/>
    </g>
    <g>
      <rect class="st0" x="283.47" y="141.73" width="47.24" height="47.24"/>
      <path class="st2" d="M316.45,152.42v3.04h-7.34v24.31h-4.04v-24.31h-7.34v-3.04h18.72Z"/>
    </g>
    <g>
      <rect class="st0" x="330.71" y="141.73" width="47.24" height="47.24"/>
      <path class="st2" d="M347.41,176.02l4.67-23.6h1.57v9.91l-3.64,17.59h-5.24l-6.24-27.5h4.54l4.34,23.6ZM365.66,152.42h4.54l-6.64,27.5h-5.21l-3.34-16.88v-10.61h1.6l4.34,23.6,4.71-23.6Z"/>
    </g>
    <g>
      <rect class="st0" x="377.95" y="141.73" width="47.24" height="47.24"/>
      <path class="st2" d="M391.33,165.97c0-2.2.24-4.15.72-5.84.48-1.69,1.15-3.13,2-4.3.86-1.17,1.87-2.08,3.04-2.71,1.17-.63,2.44-1,3.82-1.09v3.71c-.76.1-1.47.36-2.14.78-.67.42-1.25,1.04-1.74,1.86s-.88,1.86-1.17,3.12-.45,2.76-.47,4.49c.02,1.76.18,3.26.47,4.51.29,1.25.68,2.29,1.18,3.14.5.84,1.08,1.48,1.75,1.91.67.43,1.37.69,2.1.76v3.67c-1.36-.1-2.63-.46-3.8-1.09-1.18-.63-2.2-1.53-3.05-2.71-.86-1.17-1.52-2.62-2-4.32-.48-1.71-.72-3.66-.72-5.86ZM402.24,152.01c1.36.07,2.62.43,3.79,1.08,1.17.64,2.18,1.55,3.04,2.73.86,1.18,1.53,2.61,2.02,4.3.49,1.69.73,3.64.73,5.84s-.25,4.16-.73,5.86-1.16,3.15-2.02,4.32c-.86,1.18-1.86,2.08-3.02,2.71s-2.43,1-3.8,1.09v-3.67c.76-.1,1.47-.36,2.14-.8.67-.43,1.25-1.06,1.74-1.89.49-.83.88-1.87,1.17-3.12.29-1.25.44-2.75.47-4.51-.02-1.76-.18-3.26-.47-4.51-.29-1.25-.68-2.29-1.18-3.12-.5-.83-1.08-1.46-1.75-1.89-.67-.43-1.37-.69-2.1-.76v-3.67Z"/>
    </g>
    <g>
      <rect class="st0" x="0" y="188.97" width="47.24" height="47.24"/>
      <path class="st2" d="M16.93,199.66h4.07v27.35h-4.07v-27.35ZM32.32,199.66v3.38h-9.95v-3.38h9.95ZM31.28,214.69h-8.91v-3.04h8.91v3.04Z"/>
    </g>
    <g>
      <rect class="st0" x="47.24" y="188.97" width="47.24" height="47.24"/>
      <path class="st2" d="M60.62,213.21c0-2.2.24-4.15.72-5.84.48-1.69,1.15-3.13,2-4.3.86-1.17,1.87-2.08,3.04-2.71,1.17-.63,2.44-1,3.82-1.09v3.71c-.76.1-1.47.36-2.14.78-.67.42-1.25,1.04-1.74,1.86-.49.82-.88,1.86-1.17,3.12-.29,1.26-.45,2.76-.47,4.49.02,1.76.18,3.26.47,4.51.29,1.25.68,2.29,1.18,3.14.5.84,1.08,1.48,1.75,1.91s1.37.69,2.1.76v3.67c-1.36-.1-2.63-.46-3.8-1.09-1.18-.63-2.2-1.53-3.05-2.71-.86-1.17-1.52-2.62-2-4.32-.48-1.71-.72-3.66-.72-5.86ZM71.53,199.26c1.36.07,2.62.43,3.79,1.08,1.17.64,2.18,1.55,3.04,2.73.86,1.18,1.53,2.61,2.02,4.3.49,1.69.73,3.64.73,5.84s-.25,4.16-.73,5.86c-.49,1.71-1.16,3.15-2.02,4.32-.86,1.17-1.86,2.08-3.02,2.71-1.16.63-2.43,1-3.81,1.09v-3.67c.76-.1,1.47-.37,2.14-.8s1.25-1.06,1.74-1.89c.49-.83.88-1.87,1.17-3.12.29-1.25.44-2.75.47-4.51-.02-1.76-.18-3.26-.47-4.51-.29-1.25-.68-2.29-1.18-3.12-.5-.83-1.08-1.46-1.75-1.89-.67-.43-1.37-.69-2.1-.76v-3.67Z"/>
    </g>
    <g>
      <rect class="st0" x="94.49" y="188.97" width="47.24" height="47.24"/>
      <path class="st2" d="M112.62,212.76c0,1.91.11,3.52.33,4.84.22,1.32.54,2.41.97,3.27.42.85.93,1.49,1.52,1.91.59.42,1.25.67,1.99.74v3.67c-1.36-.1-2.59-.46-3.69-1.09-1.1-.63-2.03-1.53-2.79-2.71-.76-1.17-1.35-2.62-1.77-4.32-.42-1.71-.63-3.66-.63-5.86v-13.54h4.07v13.1ZM127.67,199.66v13.54c0,2.2-.21,4.16-.63,5.86-.42,1.71-1.02,3.15-1.79,4.32s-1.7,2.08-2.79,2.71c-1.09.63-2.31,1-3.67,1.09v-3.67c.73-.1,1.4-.35,1.99-.76.59-.41,1.1-1.03,1.52-1.87s.75-1.92.98-3.25c.23-1.32.35-2.95.35-4.88v-13.1h4.04Z"/>
    </g>
    <g>
      <rect class="st0" x="141.73" y="188.97" width="47.24" height="47.24"/>
      <path class="st2" d="M157.34,199.66h4.01v27.35h-4.01v-27.35ZM174.03,227.01h-4.24l-4.64-9.91c-.07,0-.14,0-.22.02-.08.01-.2.02-.35.02h-1.87v-3.27h2.27c.49,0,.98-.09,1.47-.28.49-.19.93-.49,1.33-.91.4-.42.72-1.01.97-1.76.24-.75.37-1.69.37-2.8,0-.45-.06-.96-.17-1.54-.11-.58-.34-1.14-.68-1.67-.35-.53-.83-.98-1.45-1.34-.62-.36-1.45-.54-2.47-.54h-1.64v-3.38h1.7c1.05,0,2.08.19,3.1.56s1.94.93,2.75,1.67c.81.74,1.47,1.64,1.97,2.69.5,1.05.75,2.23.75,3.54,0,1.98-.41,3.66-1.24,5.05-.82,1.39-1.94,2.41-3.34,3.08l5.61,10.76Z"/>
    </g>
    <g>
      <rect class="st0" x="188.98" y="188.97" width="47.24" height="47.24"/>
      <path class="st2" d="M221.96,199.66v3.04h-7.34v24.31h-4.04v-24.31h-7.34v-3.04h18.72Z"/>
    </g>
    <g>
      <rect class="st0" x="236.22" y="188.97" width="47.24" height="47.24"/>
      <path class="st2" d="M250.48,199.66h4.07v27.35h-4.07v-27.35ZM269.21,199.66v27.35h-4.01v-12.32h-9.28v-3.04h9.28v-11.99h4.01Z"/>
    </g>
    <g>
      <rect class="st0" x="283.46" y="188.97" width="47.24" height="47.24"/>
      <path class="st2" d="M299.08,199.66h4.01v27.35h-4.01v-27.35ZM315.76,227.01h-4.24l-4.64-9.91c-.07,0-.14,0-.22.02-.08.01-.2.02-.35.02h-1.87v-3.27h2.27c.49,0,.98-.09,1.47-.28.49-.19.93-.49,1.33-.91.4-.42.72-1.01.97-1.76.24-.75.37-1.69.37-2.8,0-.45-.06-.96-.17-1.54-.11-.58-.34-1.14-.68-1.67-.34-.53-.83-.98-1.45-1.34-.62-.36-1.45-.54-2.47-.54h-1.64v-3.38h1.7c1.05,0,2.08.19,3.1.56s1.94.93,2.75,1.67,1.47,1.64,1.97,2.69c.5,1.05.75,2.23.75,3.54,0,1.98-.41,3.66-1.24,5.05-.82,1.39-1.94,2.41-3.34,3.08l5.61,10.76Z"/>
    </g>
    <g>
      <rect class="st0" x="330.71" y="188.97" width="47.24" height="47.24"/>
      <path class="st2" d="M347.02,199.66h4.07v27.35h-4.07v-27.35ZM362.41,199.66v3.38h-9.95v-3.38h9.95ZM361.37,214.69h-8.91v-3.04h8.91v3.04ZM352.46,223.64h9.95v3.38h-9.95v-3.38Z"/>
    </g>
    <g>
      <rect class="st0" x="377.95" y="188.97" width="47.24" height="47.24"/>
      <path class="st2" d="M394.27,199.66h4.07v27.35h-4.07v-27.35ZM409.65,199.66v3.38h-9.95v-3.38h9.95ZM408.62,214.69h-8.91v-3.04h8.91v3.04ZM399.71,223.64h9.95v3.38h-9.95v-3.38Z"/>
    </g>
    <g>
      <rect class="st0" x="0" y="236.22" width="47.24" height="47.24"/>
      <path class="st2" d="M17.98,269.25c.31.2.71.39,1.19.58.48.19.97.36,1.49.52.51.16,1.02.29,1.54.39.51.1.99.15,1.44.15h.1v3.53h-.07c-.53,0-1.08-.03-1.65-.09s-1.14-.17-1.72-.32c-.58-.15-1.13-.35-1.65-.61-.52-.26-.97-.58-1.35-.95l.7-3.19ZM17.45,254.11c0-1.09.17-2.07.5-2.93.33-.87.78-1.63,1.35-2.28s1.23-1.17,2-1.56c.77-.38,1.57-.64,2.42-.76v3.9c-.71.27-1.3.75-1.77,1.43-.47.68-.7,1.37-.7,2.06,0,.96.23,1.74.7,2.34.47.59,1.06,1.11,1.77,1.56v4.23c-.73-.4-1.47-.82-2.2-1.28s-1.4-1-2-1.61c-.6-.62-1.1-1.34-1.49-2.15-.39-.82-.58-1.79-.58-2.93ZM28.96,251.14c-.11-.05-.25-.14-.4-.26-.16-.12-.38-.24-.67-.35-.29-.11-.66-.2-1.1-.28-.45-.07-1.01-.09-1.7-.04v-3.75c.98.02,1.97.14,2.99.35,1.01.21,1.83.54,2.45.98-.13.32-.29.67-.47,1.06-.18.38-.35.74-.5,1.08s-.29.61-.4.83-.18.35-.2.37ZM25.09,258.6c.73.37,1.49.77,2.25,1.19s1.46.93,2.09,1.54c.62.61,1.13,1.34,1.54,2.21.4.87.6,1.94.6,3.23,0,.89-.15,1.76-.45,2.6s-.72,1.6-1.27,2.28-1.22,1.26-2.02,1.73-1.71.78-2.74.93v-3.56c1.82-.5,2.74-1.84,2.74-4.04,0-.87-.26-1.58-.77-2.15-.51-.57-1.17-1.1-1.97-1.6v-4.34Z"/>
    </g>
    <g>
      <rect class="st0" x="47.24" y="236.22" width="47.24" height="47.24"/>
      <path class="st2" d="M63.56,246.91h4.07v27.35h-4.07v-27.35ZM78.94,246.91v3.38h-9.95v-3.38h9.95ZM77.91,261.94h-8.91v-3.04h8.91v3.04ZM69,270.88h9.95v3.38h-9.95v-3.38Z"/>
    </g>
    <g>
      <rect class="st0" x="94.49" y="236.22" width="47.24" height="47.24"/>
      <path class="st2" d="M107.71,246.91h4.57l5.17,21.45v6.05h-2.1l-7.64-27.5ZM124.03,246.91h4.54l-8.01,27.5h-1.74v-7.24l5.21-20.26Z"/>
    </g>
    <g>
      <rect class="st0" x="141.73" y="236.22" width="47.24" height="47.24"/>
      <path class="st2" d="M158.04,246.91h4.07v27.35h-4.07v-27.35ZM173.43,246.91v3.38h-9.95v-3.38h9.95ZM172.4,261.94h-8.91v-3.04h8.91v3.04ZM163.49,270.88h9.95v3.38h-9.95v-3.38Z"/>
    </g>
    <g>
      <rect class="st0" x="188.98" y="236.22" width="47.24" height="47.24"/>
      <path class="st2" d="M203.72,274.26v-27.35h4.07v27.35h-4.07ZM217.44,246.91h4.07v27.35h-4.07l-8.28-16.18v-8.54l8.28,16.22v-18.85Z"/>
    </g>
    <g>
      <rect class="st0" x="236.22" y="236.22" width="47.24" height="47.24"/>
      <path class="st2" d="M253.15,246.91h4.07v27.35h-4.07v-27.35ZM268.54,246.91v3.38h-9.95v-3.38h9.95ZM267.5,261.94h-8.91v-3.04h8.91v3.04Z"/>
    </g>
    <g>
      <rect class="st0" x="283.46" y="236.22" width="47.24" height="47.24"/>
      <path class="st2" d="M309.16,274.26h-4.07v-27.35h4.07v27.35Z"/>
    </g>
    <g>
      <rect class="st0" x="330.71" y="236.22" width="47.24" height="47.24"/>
      <path class="st2" d="M343.93,246.91h4.57l5.17,21.45v6.05h-2.1l-7.64-27.5ZM360.26,246.91h4.54l-8.01,27.5h-1.74v-7.24l5.21-20.26Z"/>
    </g>
    <g>
      <rect class="st0" x="377.95" y="236.22" width="47.24" height="47.24"/>
      <path class="st2" d="M394.27,246.91h4.07v27.35h-4.07v-27.35ZM409.65,246.91v3.38h-9.95v-3.38h9.95ZM408.62,261.94h-8.91v-3.04h8.91v3.04ZM399.71,270.88h9.95v3.38h-9.95v-3.38Z"/>
    </g>
    <g>
      <rect class="st0" x="0" y="283.46" width="47.24" height="47.24"/>
      <path class="st2" d="M16.31,294.15h4.07v27.35h-4.07v-27.35ZM31.7,294.15v3.38h-9.95v-3.38h9.95ZM30.66,309.18h-8.91v-3.04h8.91v3.04ZM21.75,318.12h9.95v3.38h-9.95v-3.38Z"/>
    </g>
    <g>
      <rect class="st0" x="47.24" y="283.46" width="47.24" height="47.24"/>
      <path class="st2" d="M68.3,294.15v23.97h11.31v3.38h-15.39v-27.35h4.07Z"/>
    </g>
    <g>
      <rect class="st0" x="94.49" y="283.46" width="47.24" height="47.24"/>
      <path class="st2" d="M110.8,294.15h4.07v27.35h-4.07v-27.35ZM126.19,294.15v3.38h-9.95v-3.38h9.95ZM125.15,309.18h-8.91v-3.04h8.91v3.04ZM116.24,318.12h9.95v3.38h-9.95v-3.38Z"/>
    </g>
    <g>
      <rect class="st0" x="141.73" y="283.46" width="47.24" height="47.24"/>
      <path class="st2" d="M154.96,294.15h4.57l5.17,21.45v6.05h-2.1l-7.64-27.5ZM171.28,294.15h4.54l-8.01,27.5h-1.74v-7.24l5.21-20.26Z"/>
    </g>
    <g>
      <rect class="st0" x="188.98" y="283.46" width="47.24" height="47.24"/>
      <path class="st2" d="M205.29,294.15h4.07v27.35h-4.07v-27.35ZM220.68,294.15v3.38h-9.95v-3.38h9.95ZM219.64,309.18h-8.91v-3.04h8.91v3.04ZM210.73,318.12h9.95v3.38h-9.95v-3.38Z"/>
    </g>
    <g>
      <rect class="st0" x="236.22" y="283.46" width="47.24" height="47.24"/>
      <path class="st2" d="M250.96,321.5v-27.35h4.07v27.35h-4.07ZM264.68,294.15h4.07v27.35h-4.07l-8.28-16.18v-8.54l8.28,16.22v-18.85Z"/>
    </g>
    <g>
      <rect class="st0" x="283.46" y="283.46" width="47.24" height="47.24"/>
      <path class="st2" d="M309.16,321.5h-4.07v-27.35h4.07v27.35Z"/>
    </g>
    <g>
      <rect class="st0" x="330.71" y="283.46" width="47.24" height="47.24"/>
      <path class="st2" d="M345.45,321.5v-27.35h4.07v27.35h-4.07ZM359.17,294.15h4.07v27.35h-4.07l-8.28-16.18v-8.54l8.28,16.22v-18.85Z"/>
    </g>
    <g>
      <rect class="st0" x="377.95" y="283.46" width="47.24" height="47.24"/>
      <path class="st2" d="M394.27,294.15h4.07v27.35h-4.07v-27.35ZM409.65,294.15v3.38h-9.95v-3.38h9.95ZM408.62,309.18h-8.91v-3.04h8.91v3.04ZM399.71,318.12h9.95v3.38h-9.95v-3.38Z"/>
    </g>
    <g>
      <rect class="st0" x="0" y="330.71" width="47.24" height="47.24"/>
      <path class="st2" d="M13.38,354.94c0-2.2.24-4.15.72-5.84.48-1.69,1.15-3.13,2-4.3.86-1.17,1.87-2.08,3.04-2.71,1.17-.63,2.44-1,3.82-1.09v3.71c-.76.1-1.47.36-2.14.78-.67.42-1.25,1.04-1.74,1.86-.49.82-.88,1.86-1.17,3.12-.29,1.26-.45,2.76-.47,4.49.02,1.76.18,3.26.47,4.51.29,1.25.68,2.29,1.18,3.14.5.84,1.08,1.48,1.75,1.91s1.37.69,2.1.76v3.67c-1.36-.1-2.63-.46-3.8-1.09-1.18-.63-2.2-1.53-3.05-2.71-.86-1.17-1.52-2.62-2-4.32-.48-1.71-.72-3.66-.72-5.86ZM24.29,340.99c1.36.07,2.62.43,3.79,1.08,1.17.64,2.18,1.55,3.04,2.73.86,1.17,1.53,2.61,2.02,4.3.49,1.69.73,3.64.73,5.84s-.25,4.16-.73,5.86c-.49,1.71-1.16,3.15-2.02,4.32-.86,1.17-1.86,2.08-3.02,2.71-1.16.63-2.43,1-3.81,1.09v-3.67c.76-.1,1.47-.37,2.14-.8s1.25-1.06,1.74-1.89c.49-.83.88-1.87,1.17-3.12.29-1.25.44-2.75.47-4.51-.02-1.76-.18-3.26-.47-4.51-.29-1.25-.68-2.29-1.18-3.12-.5-.83-1.08-1.46-1.75-1.89s-1.37-.69-2.1-.76v-3.67Z"/>
    </g>
    <g>
      <rect class="st0" x="47.24" y="330.71" width="47.24" height="47.24"/>
      <path class="st2" d="M61.99,368.75v-27.35h4.07v27.35h-4.07ZM75.71,341.4h4.07v27.35h-4.07l-8.28-16.18v-8.54l8.28,16.22v-18.85Z"/>
    </g>
    <g>
      <rect class="st0" x="94.49" y="330.71" width="47.24" height="47.24"/>
      <path class="st2" d="M110.8,341.4h4.07v27.35h-4.07v-27.35ZM126.19,341.4v3.38h-9.95v-3.38h9.95ZM125.15,356.42h-8.91v-3.04h8.91v3.04ZM116.24,365.37h9.95v3.38h-9.95v-3.38Z"/>
    </g>
    <g>
      <rect class="st0" x="141.73" y="330.71" width="47.24" height="47.24"/>
      <path class="st2" d="M167.42,368.75h-4.07v-27.35h4.07v27.35Z"/>
    </g>
    <g>
      <rect class="st0" x="188.98" y="330.71" width="47.24" height="47.24"/>
      <path class="st2" d="M203.39,354.94c0-2.13.22-4.01.67-5.66.44-1.65,1.06-3.04,1.84-4.19.78-1.15,1.71-2.06,2.8-2.73,1.09-.67,2.27-1.09,3.54-1.26v3.71c-.67.2-1.28.53-1.85,1-.57.47-1.07,1.12-1.5,1.95-.43.83-.77,1.83-1.02,3.01-.25,1.17-.38,2.57-.4,4.17.02,1.61.16,3.02.4,4.23.24,1.21.58,2.26,1.02,3.14.43.88.93,1.58,1.5,2.1.57.52,1.19.88,1.85,1.08v3.38c-1.27-.17-2.45-.6-3.54-1.28-1.09-.68-2.03-1.6-2.8-2.76-.78-1.16-1.39-2.57-1.84-4.21-.45-1.65-.67-3.53-.67-5.66ZM217.71,346.67c-.53-.72-1.15-1.24-1.84-1.56s-1.4-.48-2.14-.48h-.13v-3.67h.03c1.33,0,2.58.25,3.74.74s2.19,1.24,3.1,2.23l-2.77,2.75ZM221.74,354.64v10.58c-.51.72-1.08,1.3-1.72,1.76-.63.46-1.3.83-2,1.13-.7.3-1.42.51-2.17.63-.75.12-1.49.19-2.22.19h-.03v-3.27c.27,0,.59-.02.98-.06s.79-.1,1.2-.19c.41-.09.8-.2,1.17-.35s.64-.36.82-.63v-6.75h-4.17v-3.04h8.14Z"/>
    </g>
    <g>
      <rect class="st0" x="236.22" y="330.71" width="47.24" height="47.24"/>
      <path class="st2" d="M250.48,341.4h4.07v27.35h-4.07v-27.35ZM269.21,341.4v27.35h-4.01v-12.32h-9.28v-3.04h9.28v-11.99h4.01Z"/>
    </g>
    <g>
      <rect class="st0" x="283.47" y="330.71" width="47.24" height="47.24"/>
      <path class="st2" d="M316.45,341.4v3.04h-7.34v24.31h-4.04v-24.31h-7.34v-3.04h18.72Z"/>
    </g>
    <g>
      <rect class="st0" x="330.71" y="330.71" width="47.24" height="47.24"/>
      <path class="st2" d="M347.02,341.4h4.07v27.35h-4.07v-27.35ZM362.41,341.4v3.38h-9.95v-3.38h9.95ZM361.37,356.42h-8.91v-3.04h8.91v3.04ZM352.46,365.37h9.95v3.38h-9.95v-3.38Z"/>
    </g>
    <g>
      <rect class="st0" x="377.95" y="330.71" width="47.24" height="47.24"/>
      <path class="st2" d="M392.7,368.75v-27.35h4.07v27.35h-4.07ZM406.42,341.4h4.07v27.35h-4.07l-8.28-16.18v-8.54l8.28,16.22v-18.85Z"/>
    </g>
    <g>
      <rect class="st0" x="0" y="377.95" width="47.24" height="47.24"/>
      <path class="st2" d="M32.98,388.64v3.04h-7.34v24.31h-4.04v-24.31h-7.34v-3.04h18.72Z"/>
    </g>
    <g>
      <rect class="st0" x="47.24" y="377.95" width="47.24" height="47.24"/>
      <path class="st2" d="M63.94,412.24l4.67-23.6h1.57v9.91l-3.64,17.59h-5.24l-6.24-27.5h4.54l4.34,23.6ZM82.2,388.64h4.54l-6.64,27.5h-5.21l-3.34-16.88v-10.61h1.6l4.34,23.6,4.71-23.6Z"/>
    </g>
    <g>
      <rect class="st0" x="94.49" y="377.95" width="47.24" height="47.24"/>
      <path class="st2" d="M110.8,388.64h4.07v27.35h-4.07v-27.35ZM126.19,388.64v3.38h-9.95v-3.38h9.95ZM125.15,403.67h-8.91v-3.04h8.91v3.04ZM116.24,412.61h9.95v3.38h-9.95v-3.38Z"/>
    </g>
    <g>
      <rect class="st0" x="141.73" y="377.95" width="47.24" height="47.24"/>
      <path class="st2" d="M162.78,388.64v23.97h11.31v3.38h-15.39v-27.35h4.07Z"/>
    </g>
    <g>
      <rect class="st0" x="188.98" y="377.95" width="47.24" height="47.24"/>
      <path class="st2" d="M202.2,388.64h4.57l5.17,21.45v6.05h-2.1l-7.64-27.5ZM218.52,388.64h4.54l-8.01,27.5h-1.74v-7.24l5.21-20.26Z"/>
    </g>
    <g>
      <rect class="st0" x="236.22" y="377.95" width="47.24" height="47.24"/>
      <path class="st2" d="M252.53,388.64h4.07v27.35h-4.07v-27.35ZM267.92,388.64v3.38h-9.95v-3.38h9.95ZM266.88,403.67h-8.91v-3.04h8.91v3.04ZM257.97,412.61h9.95v3.38h-9.95v-3.38Z"/>
    </g>
    <g>
      <rect class="st0" x="283.46" y="377.95" width="47.24" height="47.24"/>
      <path class="st2" d="M301.45,410.98c.31.2.71.39,1.18.58s.97.36,1.49.52,1.02.29,1.54.39.99.15,1.44.15h.1v3.53h-.07c-.53,0-1.08-.03-1.65-.09s-1.14-.17-1.72-.32c-.58-.15-1.13-.35-1.65-.61s-.97-.58-1.35-.95l.7-3.19ZM300.91,395.84c0-1.09.17-2.07.5-2.93.33-.87.78-1.63,1.35-2.28s1.23-1.17,2-1.56c.77-.38,1.57-.64,2.42-.76v3.9c-.71.27-1.3.75-1.77,1.43s-.7,1.37-.7,2.06c0,.96.23,1.74.7,2.34s1.06,1.11,1.77,1.56v4.23c-.73-.4-1.47-.82-2.2-1.28s-1.4-1-2-1.61-1.1-1.34-1.49-2.15-.58-1.79-.58-2.93ZM312.43,392.87c-.11-.05-.25-.14-.4-.26-.16-.12-.38-.24-.67-.35-.29-.11-.66-.2-1.1-.28-.45-.07-1.01-.09-1.7-.04v-3.75c.98.02,1.97.14,2.99.35,1.01.21,1.83.54,2.45.98-.13.32-.29.67-.47,1.06s-.34.74-.5,1.08c-.16.33-.29.61-.4.83s-.18.35-.2.37ZM308.56,400.33c.73.37,1.49.77,2.25,1.19s1.46.93,2.09,1.54c.62.61,1.13,1.34,1.54,2.21s.6,1.94.6,3.23c0,.89-.15,1.76-.45,2.6-.3.84-.72,1.6-1.27,2.28-.55.68-1.22,1.26-2.02,1.73-.8.47-1.71.78-2.74.93v-3.56c1.82-.5,2.74-1.84,2.74-4.04,0-.87-.26-1.58-.77-2.15s-1.17-1.1-1.97-1.6v-4.34Z"/>
    </g>
    <g>
      <rect class="st0" x="330.71" y="377.95" width="47.24" height="47.24"/>
      <path class="st2" d="M356.4,415.99h-4.07v-27.35h4.07v27.35Z"/>
    </g>
    <g>
      <rect class="st0" x="377.95" y="377.95" width="47.24" height="47.24"/>
      <path class="st2" d="M392.33,388.64h4.57l4.01,10.24v8.5l-3.54,8.61h-4.64l6.24-13.29-6.64-14.06ZM410.85,388.64l-6.64,14.06,6.24,13.29h-4.64l-3.54-9.39v-8.46l4-9.5h4.57Z"/>
    </g>
  </g>
</svg>